%TF.GenerationSoftware,KiCad,Pcbnew,9.0.4*%
%TF.CreationDate,2025-10-05T01:24:38+05:30*%
%TF.ProjectId,Project4,50726f6a-6563-4743-942e-6b696361645f,rev?*%
%TF.SameCoordinates,Original*%
%TF.FileFunction,Paste,Top*%
%TF.FilePolarity,Positive*%
%FSLAX46Y46*%
G04 Gerber Fmt 4.6, Leading zero omitted, Abs format (unit mm)*
G04 Created by KiCad (PCBNEW 9.0.4) date 2025-10-05 01:24:38*
%MOMM*%
%LPD*%
G01*
G04 APERTURE LIST*
G04 Aperture macros list*
%AMRoundRect*
0 Rectangle with rounded corners*
0 $1 Rounding radius*
0 $2 $3 $4 $5 $6 $7 $8 $9 X,Y pos of 4 corners*
0 Add a 4 corners polygon primitive as box body*
4,1,4,$2,$3,$4,$5,$6,$7,$8,$9,$2,$3,0*
0 Add four circle primitives for the rounded corners*
1,1,$1+$1,$2,$3*
1,1,$1+$1,$4,$5*
1,1,$1+$1,$6,$7*
1,1,$1+$1,$8,$9*
0 Add four rect primitives between the rounded corners*
20,1,$1+$1,$2,$3,$4,$5,0*
20,1,$1+$1,$4,$5,$6,$7,0*
20,1,$1+$1,$6,$7,$8,$9,0*
20,1,$1+$1,$8,$9,$2,$3,0*%
G04 Aperture macros list end*
%ADD10RoundRect,0.135000X0.135000X0.185000X-0.135000X0.185000X-0.135000X-0.185000X0.135000X-0.185000X0*%
%ADD11RoundRect,0.250000X0.475000X-0.250000X0.475000X0.250000X-0.475000X0.250000X-0.475000X-0.250000X0*%
%ADD12R,1.300000X0.450000*%
%ADD13RoundRect,0.375000X-0.375000X0.625000X-0.375000X-0.625000X0.375000X-0.625000X0.375000X0.625000X0*%
%ADD14RoundRect,0.500000X-1.400000X0.500000X-1.400000X-0.500000X1.400000X-0.500000X1.400000X0.500000X0*%
%ADD15RoundRect,0.140000X-0.170000X0.140000X-0.170000X-0.140000X0.170000X-0.140000X0.170000X0.140000X0*%
%ADD16RoundRect,0.140000X-0.140000X-0.170000X0.140000X-0.170000X0.140000X0.170000X-0.140000X0.170000X0*%
%ADD17R,1.500000X0.700000*%
%ADD18R,0.800000X1.000000*%
%ADD19RoundRect,0.140000X0.170000X-0.140000X0.170000X0.140000X-0.170000X0.140000X-0.170000X-0.140000X0*%
%ADD20RoundRect,0.250000X-0.350000X0.450000X-0.350000X-0.450000X0.350000X-0.450000X0.350000X0.450000X0*%
%ADD21RoundRect,0.250000X-0.250000X-0.475000X0.250000X-0.475000X0.250000X0.475000X-0.250000X0.475000X0*%
%ADD22RoundRect,0.218750X0.218750X0.256250X-0.218750X0.256250X-0.218750X-0.256250X0.218750X-0.256250X0*%
%ADD23RoundRect,0.140000X0.140000X0.170000X-0.140000X0.170000X-0.140000X-0.170000X0.140000X-0.170000X0*%
%ADD24RoundRect,0.225000X-0.225000X-0.250000X0.225000X-0.250000X0.225000X0.250000X-0.225000X0.250000X0*%
%ADD25RoundRect,0.218750X-0.256250X0.218750X-0.256250X-0.218750X0.256250X-0.218750X0.256250X0.218750X0*%
%ADD26RoundRect,0.135000X-0.135000X-0.185000X0.135000X-0.185000X0.135000X0.185000X-0.135000X0.185000X0*%
%ADD27RoundRect,0.135000X-0.185000X0.135000X-0.185000X-0.135000X0.185000X-0.135000X0.185000X0.135000X0*%
%ADD28RoundRect,0.075000X-0.075000X-0.662500X0.075000X-0.662500X0.075000X0.662500X-0.075000X0.662500X0*%
%ADD29RoundRect,0.075000X-0.662500X-0.075000X0.662500X-0.075000X0.662500X0.075000X-0.662500X0.075000X0*%
G04 APERTURE END LIST*
D10*
%TO.C,R1*%
X132990000Y-98500000D03*
X134010000Y-98500000D03*
%TD*%
D11*
%TO.C,C2*%
X129500000Y-100950000D03*
X129500000Y-99050000D03*
%TD*%
D12*
%TO.C,J1*%
X130345000Y-90205000D03*
X130345000Y-90855000D03*
X130345000Y-91505000D03*
X130345000Y-92155000D03*
X130345000Y-92805000D03*
%TD*%
D13*
%TO.C,U1*%
X126800000Y-99350000D03*
X124500000Y-99350000D03*
D14*
X124500000Y-105650000D03*
D13*
X122200000Y-99350000D03*
%TD*%
D15*
%TO.C,C4*%
X108500000Y-92480000D03*
X108500000Y-91520000D03*
%TD*%
D16*
%TO.C,C7*%
X112020000Y-88000000D03*
X112980000Y-88000000D03*
%TD*%
D17*
%TO.C,SW1*%
X96930000Y-90750000D03*
X96930000Y-89250000D03*
X96930000Y-86250000D03*
D18*
X94070000Y-92150000D03*
X96280000Y-92150000D03*
X94070000Y-84850000D03*
X96280000Y-84850000D03*
%TD*%
D19*
%TO.C,C12*%
X105500000Y-93480000D03*
X105500000Y-92520000D03*
%TD*%
%TO.C,C13*%
X105500000Y-94520000D03*
X105500000Y-95480000D03*
%TD*%
D20*
%TO.C,Y1*%
X103350000Y-92900000D03*
X103350000Y-95100000D03*
X101650000Y-95100000D03*
X101650000Y-92900000D03*
%TD*%
D21*
%TO.C,C1*%
X125450000Y-96500000D03*
X123550000Y-96500000D03*
%TD*%
D22*
%TO.C,D1*%
X134287500Y-101000000D03*
X132712500Y-101000000D03*
%TD*%
D16*
%TO.C,C11*%
X113480000Y-100500000D03*
X112520000Y-100500000D03*
%TD*%
D23*
%TO.C,C5*%
X117520000Y-100500000D03*
X118480000Y-100500000D03*
%TD*%
D24*
%TO.C,C3*%
X113275000Y-86500000D03*
X111725000Y-86500000D03*
%TD*%
D15*
%TO.C,C6*%
X121500000Y-92480000D03*
X121500000Y-91520000D03*
%TD*%
D19*
%TO.C,C8*%
X109000000Y-95000000D03*
X109000000Y-95960000D03*
%TD*%
D23*
%TO.C,C9*%
X107500000Y-99000000D03*
X108460000Y-99000000D03*
%TD*%
%TO.C,C10*%
X107500000Y-100500000D03*
X108460000Y-100500000D03*
%TD*%
D25*
%TO.C,FB1*%
X110000000Y-100287500D03*
X110000000Y-98712500D03*
%TD*%
D10*
%TO.C,R4*%
X110990000Y-104000000D03*
X112010000Y-104000000D03*
%TD*%
D26*
%TO.C,R5*%
X115510000Y-104000000D03*
X114490000Y-104000000D03*
%TD*%
D27*
%TO.C,R2*%
X101000000Y-89010000D03*
X101000000Y-87990000D03*
%TD*%
%TO.C,R3*%
X125000000Y-92510000D03*
X125000000Y-91490000D03*
%TD*%
D28*
%TO.C,U2*%
X112250000Y-90337500D03*
X112750000Y-90337500D03*
X113250000Y-90337500D03*
X113750000Y-90337500D03*
X114250000Y-90337500D03*
X114750000Y-90337500D03*
X115250000Y-90337500D03*
X115750000Y-90337500D03*
X116250000Y-90337500D03*
X116750000Y-90337500D03*
X117250000Y-90337500D03*
X117750000Y-90337500D03*
D29*
X119162500Y-91750000D03*
X119162500Y-92250000D03*
X119162500Y-92750000D03*
X119162500Y-93250000D03*
X119162500Y-93750000D03*
X119162500Y-94250000D03*
X119162500Y-94750000D03*
X119162500Y-95250000D03*
X119162500Y-95750000D03*
X119162500Y-96250000D03*
X119162500Y-96750000D03*
X119162500Y-97250000D03*
D28*
X117750000Y-98662500D03*
X117250000Y-98662500D03*
X116750000Y-98662500D03*
X116250000Y-98662500D03*
X115750000Y-98662500D03*
X115250000Y-98662500D03*
X114750000Y-98662500D03*
X114250000Y-98662500D03*
X113750000Y-98662500D03*
X113250000Y-98662500D03*
X112750000Y-98662500D03*
X112250000Y-98662500D03*
D29*
X110837500Y-97250000D03*
X110837500Y-96750000D03*
X110837500Y-96250000D03*
X110837500Y-95750000D03*
X110837500Y-95250000D03*
X110837500Y-94750000D03*
X110837500Y-94250000D03*
X110837500Y-93750000D03*
X110837500Y-93250000D03*
X110837500Y-92750000D03*
X110837500Y-92250000D03*
X110837500Y-91750000D03*
%TD*%
M02*
