%TF.GenerationSoftware,KiCad,Pcbnew,9.0.4*%
%TF.CreationDate,2025-10-05T01:24:38+05:30*%
%TF.ProjectId,Project4,50726f6a-6563-4743-942e-6b696361645f,rev?*%
%TF.SameCoordinates,Original*%
%TF.FileFunction,Copper,L1,Top*%
%TF.FilePolarity,Positive*%
%FSLAX46Y46*%
G04 Gerber Fmt 4.6, Leading zero omitted, Abs format (unit mm)*
G04 Created by KiCad (PCBNEW 9.0.4) date 2025-10-05 01:24:38*
%MOMM*%
%LPD*%
G01*
G04 APERTURE LIST*
G04 Aperture macros list*
%AMRoundRect*
0 Rectangle with rounded corners*
0 $1 Rounding radius*
0 $2 $3 $4 $5 $6 $7 $8 $9 X,Y pos of 4 corners*
0 Add a 4 corners polygon primitive as box body*
4,1,4,$2,$3,$4,$5,$6,$7,$8,$9,$2,$3,0*
0 Add four circle primitives for the rounded corners*
1,1,$1+$1,$2,$3*
1,1,$1+$1,$4,$5*
1,1,$1+$1,$6,$7*
1,1,$1+$1,$8,$9*
0 Add four rect primitives between the rounded corners*
20,1,$1+$1,$2,$3,$4,$5,0*
20,1,$1+$1,$4,$5,$6,$7,0*
20,1,$1+$1,$6,$7,$8,$9,0*
20,1,$1+$1,$8,$9,$2,$3,0*%
G04 Aperture macros list end*
%TA.AperFunction,SMDPad,CuDef*%
%ADD10RoundRect,0.135000X0.135000X0.185000X-0.135000X0.185000X-0.135000X-0.185000X0.135000X-0.185000X0*%
%TD*%
%TA.AperFunction,SMDPad,CuDef*%
%ADD11RoundRect,0.250000X0.475000X-0.250000X0.475000X0.250000X-0.475000X0.250000X-0.475000X-0.250000X0*%
%TD*%
%TA.AperFunction,HeatsinkPad*%
%ADD12O,1.800000X1.150000*%
%TD*%
%TA.AperFunction,HeatsinkPad*%
%ADD13O,2.000000X1.450000*%
%TD*%
%TA.AperFunction,SMDPad,CuDef*%
%ADD14R,1.300000X0.450000*%
%TD*%
%TA.AperFunction,SMDPad,CuDef*%
%ADD15RoundRect,0.375000X-0.375000X0.625000X-0.375000X-0.625000X0.375000X-0.625000X0.375000X0.625000X0*%
%TD*%
%TA.AperFunction,SMDPad,CuDef*%
%ADD16RoundRect,0.500000X-1.400000X0.500000X-1.400000X-0.500000X1.400000X-0.500000X1.400000X0.500000X0*%
%TD*%
%TA.AperFunction,SMDPad,CuDef*%
%ADD17RoundRect,0.140000X-0.170000X0.140000X-0.170000X-0.140000X0.170000X-0.140000X0.170000X0.140000X0*%
%TD*%
%TA.AperFunction,SMDPad,CuDef*%
%ADD18RoundRect,0.140000X-0.140000X-0.170000X0.140000X-0.170000X0.140000X0.170000X-0.140000X0.170000X0*%
%TD*%
%TA.AperFunction,SMDPad,CuDef*%
%ADD19R,1.500000X0.700000*%
%TD*%
%TA.AperFunction,SMDPad,CuDef*%
%ADD20R,0.800000X1.000000*%
%TD*%
%TA.AperFunction,SMDPad,CuDef*%
%ADD21RoundRect,0.140000X0.170000X-0.140000X0.170000X0.140000X-0.170000X0.140000X-0.170000X-0.140000X0*%
%TD*%
%TA.AperFunction,SMDPad,CuDef*%
%ADD22RoundRect,0.250000X-0.350000X0.450000X-0.350000X-0.450000X0.350000X-0.450000X0.350000X0.450000X0*%
%TD*%
%TA.AperFunction,SMDPad,CuDef*%
%ADD23RoundRect,0.250000X-0.250000X-0.475000X0.250000X-0.475000X0.250000X0.475000X-0.250000X0.475000X0*%
%TD*%
%TA.AperFunction,SMDPad,CuDef*%
%ADD24RoundRect,0.218750X0.218750X0.256250X-0.218750X0.256250X-0.218750X-0.256250X0.218750X-0.256250X0*%
%TD*%
%TA.AperFunction,ComponentPad*%
%ADD25R,1.700000X1.700000*%
%TD*%
%TA.AperFunction,ComponentPad*%
%ADD26C,1.700000*%
%TD*%
%TA.AperFunction,SMDPad,CuDef*%
%ADD27RoundRect,0.140000X0.140000X0.170000X-0.140000X0.170000X-0.140000X-0.170000X0.140000X-0.170000X0*%
%TD*%
%TA.AperFunction,SMDPad,CuDef*%
%ADD28RoundRect,0.225000X-0.225000X-0.250000X0.225000X-0.250000X0.225000X0.250000X-0.225000X0.250000X0*%
%TD*%
%TA.AperFunction,SMDPad,CuDef*%
%ADD29RoundRect,0.218750X-0.256250X0.218750X-0.256250X-0.218750X0.256250X-0.218750X0.256250X0.218750X0*%
%TD*%
%TA.AperFunction,SMDPad,CuDef*%
%ADD30RoundRect,0.135000X-0.135000X-0.185000X0.135000X-0.185000X0.135000X0.185000X-0.135000X0.185000X0*%
%TD*%
%TA.AperFunction,SMDPad,CuDef*%
%ADD31RoundRect,0.135000X-0.185000X0.135000X-0.185000X-0.135000X0.185000X-0.135000X0.185000X0.135000X0*%
%TD*%
%TA.AperFunction,SMDPad,CuDef*%
%ADD32RoundRect,0.075000X-0.075000X-0.662500X0.075000X-0.662500X0.075000X0.662500X-0.075000X0.662500X0*%
%TD*%
%TA.AperFunction,SMDPad,CuDef*%
%ADD33RoundRect,0.075000X-0.662500X-0.075000X0.662500X-0.075000X0.662500X0.075000X-0.662500X0.075000X0*%
%TD*%
%TA.AperFunction,ViaPad*%
%ADD34C,0.700000*%
%TD*%
%TA.AperFunction,Conductor*%
%ADD35C,0.500000*%
%TD*%
%TA.AperFunction,Conductor*%
%ADD36C,0.300000*%
%TD*%
%TA.AperFunction,Conductor*%
%ADD37C,0.200000*%
%TD*%
G04 APERTURE END LIST*
D10*
%TO.P,R1,2*%
%TO.N,GND*%
X132990000Y-98500000D03*
%TO.P,R1,1*%
%TO.N,/PWR_LED_K*%
X134010000Y-98500000D03*
%TD*%
D11*
%TO.P,C2,1*%
%TO.N,+3.3V*%
X129500000Y-100950000D03*
%TO.P,C2,2*%
%TO.N,GND*%
X129500000Y-99050000D03*
%TD*%
D12*
%TO.P,J1,6,Shield*%
%TO.N,unconnected-(J1-Shield-Pad6)*%
X134195000Y-87630000D03*
D13*
X130395000Y-87780000D03*
X130395000Y-95230000D03*
D12*
X134195000Y-95380000D03*
D14*
%TO.P,J1,5,GND*%
%TO.N,GND*%
X130345000Y-90205000D03*
%TO.P,J1,4,ID*%
%TO.N,unconnected-(J1-ID-Pad4)*%
X130345000Y-90855000D03*
%TO.P,J1,3,D+*%
%TO.N,/USB_D+*%
X130345000Y-91505000D03*
%TO.P,J1,2,D-*%
%TO.N,/USB_D-*%
X130345000Y-92155000D03*
%TO.P,J1,1,VBUS*%
%TO.N,VBUS*%
X130345000Y-92805000D03*
%TD*%
D15*
%TO.P,U1,1,GND*%
%TO.N,GND*%
X126800000Y-99350000D03*
%TO.P,U1,2,VO*%
%TO.N,+3.3V*%
X124500000Y-99350000D03*
D16*
X124500000Y-105650000D03*
D15*
%TO.P,U1,3,VI*%
%TO.N,VBUS*%
X122200000Y-99350000D03*
%TD*%
D17*
%TO.P,C4,2*%
%TO.N,GND*%
X108500000Y-92480000D03*
%TO.P,C4,1*%
%TO.N,+3.3V*%
X108500000Y-91520000D03*
%TD*%
D18*
%TO.P,C7,1*%
%TO.N,+3.3V*%
X112020000Y-88000000D03*
%TO.P,C7,2*%
%TO.N,GND*%
X112980000Y-88000000D03*
%TD*%
D19*
%TO.P,SW1,3,C*%
%TO.N,+3.3V*%
X96930000Y-90750000D03*
%TO.P,SW1,2,B*%
%TO.N,/SW_BOOT0*%
X96930000Y-89250000D03*
%TO.P,SW1,1,A*%
%TO.N,GND*%
X96930000Y-86250000D03*
D20*
%TO.P,SW1,*%
%TO.N,*%
X94070000Y-92150000D03*
X96280000Y-92150000D03*
X94070000Y-84850000D03*
X96280000Y-84850000D03*
%TD*%
D21*
%TO.P,C12,1*%
%TO.N,/HSE_IN*%
X105500000Y-93480000D03*
%TO.P,C12,2*%
%TO.N,GND*%
X105500000Y-92520000D03*
%TD*%
%TO.P,C13,2*%
%TO.N,GND*%
X105500000Y-94520000D03*
%TO.P,C13,1*%
%TO.N,/HSE_OUT*%
X105500000Y-95480000D03*
%TD*%
D22*
%TO.P,Y1,4,4*%
%TO.N,GND*%
X103350000Y-92900000D03*
%TO.P,Y1,3,3*%
%TO.N,/HSE_OUT*%
X103350000Y-95100000D03*
%TO.P,Y1,2,2*%
%TO.N,GND*%
X101650000Y-95100000D03*
%TO.P,Y1,1,1*%
%TO.N,/HSE_IN*%
X101650000Y-92900000D03*
%TD*%
D23*
%TO.P,C1,2*%
%TO.N,GND*%
X125450000Y-96500000D03*
%TO.P,C1,1*%
%TO.N,VBUS*%
X123550000Y-96500000D03*
%TD*%
D24*
%TO.P,D1,1,K*%
%TO.N,/PWR_LED_K*%
X134287500Y-101000000D03*
%TO.P,D1,2,A*%
%TO.N,+3.3V*%
X132712500Y-101000000D03*
%TD*%
D25*
%TO.P,J4,1,Pin_1*%
%TO.N,+3.3V*%
X109690000Y-107000000D03*
D26*
%TO.P,J4,2,Pin_2*%
%TO.N,/I2C2_SCL*%
X112230000Y-107000000D03*
%TO.P,J4,3,Pin_3*%
%TO.N,/I2C2_SDA*%
X114770000Y-107000000D03*
%TO.P,J4,4,Pin_4*%
%TO.N,GND*%
X117310000Y-107000000D03*
%TD*%
D25*
%TO.P,J3,1,Pin_1*%
%TO.N,+3.3V*%
X125080000Y-79500000D03*
D26*
%TO.P,J3,2,Pin_2*%
%TO.N,/SWDIO*%
X122540000Y-79500000D03*
%TO.P,J3,3,Pin_3*%
%TO.N,/SWCLK*%
X120000000Y-79500000D03*
%TO.P,J3,4,Pin_4*%
%TO.N,GND*%
X117460000Y-79500000D03*
%TD*%
D18*
%TO.P,C11,2*%
%TO.N,GND*%
X113480000Y-100500000D03*
%TO.P,C11,1*%
%TO.N,/NRST*%
X112520000Y-100500000D03*
%TD*%
D27*
%TO.P,C5,2*%
%TO.N,GND*%
X117520000Y-100500000D03*
%TO.P,C5,1*%
%TO.N,+3.3V*%
X118480000Y-100500000D03*
%TD*%
D28*
%TO.P,C3,2*%
%TO.N,GND*%
X113275000Y-86500000D03*
%TO.P,C3,1*%
%TO.N,+3.3V*%
X111725000Y-86500000D03*
%TD*%
D17*
%TO.P,C6,2*%
%TO.N,GND*%
X121500000Y-92480000D03*
%TO.P,C6,1*%
%TO.N,+3.3V*%
X121500000Y-91520000D03*
%TD*%
D21*
%TO.P,C8,2*%
%TO.N,GND*%
X109000000Y-95000000D03*
%TO.P,C8,1*%
%TO.N,+3.3VA*%
X109000000Y-95960000D03*
%TD*%
D27*
%TO.P,C9,2*%
%TO.N,GND*%
X107500000Y-99000000D03*
%TO.P,C9,1*%
%TO.N,+3.3VA*%
X108460000Y-99000000D03*
%TD*%
%TO.P,C10,2*%
%TO.N,GND*%
X107500000Y-100500000D03*
%TO.P,C10,1*%
%TO.N,+3.3V*%
X108460000Y-100500000D03*
%TD*%
D29*
%TO.P,FB1,2*%
%TO.N,+3.3V*%
X110000000Y-100287500D03*
%TO.P,FB1,1*%
%TO.N,+3.3VA*%
X110000000Y-98712500D03*
%TD*%
D26*
%TO.P,J2,4,Pin_4*%
%TO.N,GND*%
X103190000Y-79500000D03*
%TO.P,J2,3,Pin_3*%
%TO.N,/USART1_RX*%
X105730000Y-79500000D03*
%TO.P,J2,2,Pin_2*%
%TO.N,/USART1_TX*%
X108270000Y-79500000D03*
D25*
%TO.P,J2,1,Pin_1*%
%TO.N,+3.3V*%
X110810000Y-79500000D03*
%TD*%
D10*
%TO.P,R4,2*%
%TO.N,/I2C2_SCL*%
X110990000Y-104000000D03*
%TO.P,R4,1*%
%TO.N,+3.3V*%
X112010000Y-104000000D03*
%TD*%
D30*
%TO.P,R5,2*%
%TO.N,/I2C2_SDA*%
X115510000Y-104000000D03*
%TO.P,R5,1*%
%TO.N,+3.3V*%
X114490000Y-104000000D03*
%TD*%
D31*
%TO.P,R2,2*%
%TO.N,/SW_BOOT0*%
X101000000Y-89010000D03*
%TO.P,R2,1*%
%TO.N,/BOOT0*%
X101000000Y-87990000D03*
%TD*%
%TO.P,R3,2*%
%TO.N,/USB_D+*%
X125000000Y-92510000D03*
%TO.P,R3,1*%
%TO.N,+3.3V*%
X125000000Y-91490000D03*
%TD*%
D32*
%TO.P,U2,48,VDD*%
%TO.N,+3.3V*%
X112250000Y-90337500D03*
%TO.P,U2,47,VSS*%
%TO.N,GND*%
X112750000Y-90337500D03*
%TO.P,U2,46,PB9*%
%TO.N,unconnected-(U2-PB9-Pad46)*%
X113250000Y-90337500D03*
%TO.P,U2,45,PB8*%
%TO.N,unconnected-(U2-PB8-Pad45)*%
X113750000Y-90337500D03*
%TO.P,U2,44,BOOT0*%
%TO.N,/BOOT0*%
X114250000Y-90337500D03*
%TO.P,U2,43,PB7*%
%TO.N,/USART1_RX*%
X114750000Y-90337500D03*
%TO.P,U2,42,PB6*%
%TO.N,/USART1_TX*%
X115250000Y-90337500D03*
%TO.P,U2,41,PB5*%
%TO.N,unconnected-(U2-PB5-Pad41)*%
X115750000Y-90337500D03*
%TO.P,U2,40,PB4*%
%TO.N,unconnected-(U2-PB4-Pad40)*%
X116250000Y-90337500D03*
%TO.P,U2,39,PB3*%
%TO.N,unconnected-(U2-PB3-Pad39)*%
X116750000Y-90337500D03*
%TO.P,U2,38,PA15*%
%TO.N,unconnected-(U2-PA15-Pad38)*%
X117250000Y-90337500D03*
%TO.P,U2,37,PA14*%
%TO.N,/SWCLK*%
X117750000Y-90337500D03*
D33*
%TO.P,U2,36,VDD*%
%TO.N,+3.3V*%
X119162500Y-91750000D03*
%TO.P,U2,35,VSS*%
%TO.N,GND*%
X119162500Y-92250000D03*
%TO.P,U2,34,PA13*%
%TO.N,/SWDIO*%
X119162500Y-92750000D03*
%TO.P,U2,33,PA12*%
%TO.N,/USB_D+*%
X119162500Y-93250000D03*
%TO.P,U2,32,PA11*%
%TO.N,/USB_D-*%
X119162500Y-93750000D03*
%TO.P,U2,31,PA10*%
%TO.N,unconnected-(U2-PA10-Pad31)*%
X119162500Y-94250000D03*
%TO.P,U2,30,PA9*%
%TO.N,unconnected-(U2-PA9-Pad30)*%
X119162500Y-94750000D03*
%TO.P,U2,29,PA8*%
%TO.N,unconnected-(U2-PA8-Pad29)*%
X119162500Y-95250000D03*
%TO.P,U2,28,PB15*%
%TO.N,unconnected-(U2-PB15-Pad28)*%
X119162500Y-95750000D03*
%TO.P,U2,27,PB14*%
%TO.N,unconnected-(U2-PB14-Pad27)*%
X119162500Y-96250000D03*
%TO.P,U2,26,PB13*%
%TO.N,unconnected-(U2-PB13-Pad26)*%
X119162500Y-96750000D03*
%TO.P,U2,25,PB12*%
%TO.N,unconnected-(U2-PB12-Pad25)*%
X119162500Y-97250000D03*
D32*
%TO.P,U2,24,VDD*%
%TO.N,+3.3V*%
X117750000Y-98662500D03*
%TO.P,U2,23,VSS*%
%TO.N,GND*%
X117250000Y-98662500D03*
%TO.P,U2,22,PB11*%
%TO.N,/I2C2_SDA*%
X116750000Y-98662500D03*
%TO.P,U2,21,PB10*%
%TO.N,/I2C2_SCL*%
X116250000Y-98662500D03*
%TO.P,U2,20,PB2*%
%TO.N,unconnected-(U2-PB2-Pad20)*%
X115750000Y-98662500D03*
%TO.P,U2,19,PB1*%
%TO.N,unconnected-(U2-PB1-Pad19)*%
X115250000Y-98662500D03*
%TO.P,U2,18,PB0*%
%TO.N,unconnected-(U2-PB0-Pad18)*%
X114750000Y-98662500D03*
%TO.P,U2,17,PA7*%
%TO.N,unconnected-(U2-PA7-Pad17)*%
X114250000Y-98662500D03*
%TO.P,U2,16,PA6*%
%TO.N,unconnected-(U2-PA6-Pad16)*%
X113750000Y-98662500D03*
%TO.P,U2,15,PA5*%
%TO.N,unconnected-(U2-PA5-Pad15)*%
X113250000Y-98662500D03*
%TO.P,U2,14,PA4*%
%TO.N,unconnected-(U2-PA4-Pad14)*%
X112750000Y-98662500D03*
%TO.P,U2,13,PA3*%
%TO.N,unconnected-(U2-PA3-Pad13)*%
X112250000Y-98662500D03*
D33*
%TO.P,U2,12,PA2*%
%TO.N,unconnected-(U2-PA2-Pad12)*%
X110837500Y-97250000D03*
%TO.P,U2,11,PA1*%
%TO.N,unconnected-(U2-PA1-Pad11)*%
X110837500Y-96750000D03*
%TO.P,U2,10,PA0*%
%TO.N,unconnected-(U2-PA0-Pad10)*%
X110837500Y-96250000D03*
%TO.P,U2,9,VDDA*%
%TO.N,+3.3VA*%
X110837500Y-95750000D03*
%TO.P,U2,8,VSSA*%
%TO.N,GND*%
X110837500Y-95250000D03*
%TO.P,U2,7,NRST*%
%TO.N,/NRST*%
X110837500Y-94750000D03*
%TO.P,U2,6,PD1*%
%TO.N,/HSE_OUT*%
X110837500Y-94250000D03*
%TO.P,U2,5,PD0*%
%TO.N,/HSE_IN*%
X110837500Y-93750000D03*
%TO.P,U2,4,PC15*%
%TO.N,unconnected-(U2-PC15-Pad4)*%
X110837500Y-93250000D03*
%TO.P,U2,3,PC14*%
%TO.N,unconnected-(U2-PC14-Pad3)*%
X110837500Y-92750000D03*
%TO.P,U2,2,PC13*%
%TO.N,unconnected-(U2-PC13-Pad2)*%
X110837500Y-92250000D03*
%TO.P,U2,1,VBAT*%
%TO.N,+3.3V*%
X110837500Y-91750000D03*
%TD*%
D34*
%TO.N,GND*%
X133000000Y-99500000D03*
%TO.N,*%
X131000000Y-99000000D03*
%TO.N,GND*%
X113000000Y-92000000D03*
X123500000Y-92500000D03*
X106500000Y-94500000D03*
X106500000Y-92000000D03*
X102500000Y-91500000D03*
X101500000Y-97000000D03*
X98500000Y-86000000D03*
%TO.N,+3.3V*%
X132000000Y-102500000D03*
X133000000Y-96500000D03*
X116500000Y-105000000D03*
X114000000Y-105000000D03*
X113000000Y-105000000D03*
X110000000Y-105000000D03*
%TO.N,*%
X128000000Y-97500000D03*
X127000000Y-96500000D03*
%TO.N,GND*%
X128000000Y-90500000D03*
%TO.N,*%
X126000000Y-102000000D03*
X127000000Y-101000000D03*
%TO.N,GND*%
X112350000Y-95792980D03*
X116500000Y-97000000D03*
X114500000Y-100500000D03*
X107500000Y-101500000D03*
X107500000Y-98000000D03*
X107500000Y-92500000D03*
%TD*%
D35*
%TO.N,+3.3VA*%
X109000000Y-99000000D02*
X109712500Y-99000000D01*
X109000000Y-99000000D02*
X109000000Y-95960000D01*
%TO.N,/PWR_LED_K*%
X134287500Y-101000000D02*
X134287500Y-98777500D01*
X134287500Y-98777500D02*
X134010000Y-98500000D01*
%TO.N,+3.3V*%
X108500000Y-88500000D02*
X109500000Y-89500000D01*
X108500000Y-86500000D02*
X108500000Y-88500000D01*
X109500000Y-89500000D02*
X109500000Y-91500000D01*
D36*
%TO.N,GND*%
X112750000Y-91750000D02*
X113000000Y-92000000D01*
X112750000Y-90337500D02*
X112750000Y-91750000D01*
X123480000Y-92480000D02*
X123500000Y-92500000D01*
X121500000Y-92480000D02*
X123480000Y-92480000D01*
D35*
%TO.N,+3.3V*%
X125000000Y-91490000D02*
X121530000Y-91490000D01*
X121530000Y-91490000D02*
X121500000Y-91520000D01*
X132370315Y-86790315D02*
X128790000Y-83210000D01*
X125000000Y-87000000D02*
X128790000Y-83210000D01*
X125000000Y-91490000D02*
X125000000Y-87000000D01*
X108460000Y-100500000D02*
X109787500Y-100500000D01*
X109787500Y-100500000D02*
X110000000Y-100287500D01*
%TO.N,+3.3VA*%
X108460000Y-99000000D02*
X109000000Y-99000000D01*
X109712500Y-99000000D02*
X110000000Y-98712500D01*
%TO.N,+3.3V*%
X114000000Y-105000000D02*
X113500000Y-105000000D01*
X113500000Y-105000000D02*
X113000000Y-105000000D01*
X120000000Y-105000000D02*
X116500000Y-105000000D01*
D36*
%TO.N,GND*%
X106480000Y-94520000D02*
X106500000Y-94500000D01*
X105500000Y-94520000D02*
X106480000Y-94520000D01*
X105980000Y-92520000D02*
X106500000Y-92000000D01*
X105500000Y-92520000D02*
X105980000Y-92520000D01*
X103350000Y-92350000D02*
X102500000Y-91500000D01*
X103350000Y-92900000D02*
X103350000Y-92350000D01*
X101650000Y-96850000D02*
X101500000Y-97000000D01*
X101650000Y-95100000D02*
X101650000Y-96850000D01*
X98250000Y-86250000D02*
X98500000Y-86000000D01*
X96930000Y-86250000D02*
X98250000Y-86250000D01*
D35*
%TO.N,+3.3V*%
X110000000Y-105000000D02*
X110000000Y-100287500D01*
X110000000Y-105000000D02*
X110000000Y-106690000D01*
X110000000Y-106690000D02*
X109690000Y-107000000D01*
X110000000Y-105000000D02*
X105500000Y-105000000D01*
X105500000Y-105000000D02*
X102000000Y-101500000D01*
X102000000Y-101500000D02*
X99500000Y-101500000D01*
X99500000Y-101500000D02*
X99500000Y-92250000D01*
X99500000Y-92250000D02*
X99750000Y-92000000D01*
X99500000Y-92000000D02*
X99750000Y-92000000D01*
X99750000Y-92000000D02*
X103250000Y-88500000D01*
X106500000Y-88500000D02*
X108500000Y-86500000D01*
X103250000Y-88500000D02*
X106500000Y-88500000D01*
X108500000Y-86500000D02*
X111725000Y-86500000D01*
X113500000Y-104000000D02*
X112010000Y-104000000D01*
X113500000Y-104000000D02*
X113500000Y-105000000D01*
X132370315Y-95870315D02*
X132370315Y-86790315D01*
X133000000Y-96500000D02*
X132370315Y-95870315D01*
X128790000Y-83210000D02*
X125080000Y-79500000D01*
X132000000Y-102500000D02*
X131500000Y-102000000D01*
X125080000Y-79500000D02*
X123331000Y-77751000D01*
X123331000Y-77751000D02*
X112559000Y-77751000D01*
X112559000Y-77751000D02*
X110810000Y-79500000D01*
X114490000Y-104000000D02*
X113500000Y-104000000D01*
X99500000Y-92000000D02*
X98250000Y-90750000D01*
X98250000Y-90750000D02*
X96930000Y-90750000D01*
X120000000Y-104000000D02*
X120000000Y-105000000D01*
X118480000Y-102480000D02*
X120000000Y-104000000D01*
X128000000Y-108000000D02*
X129000000Y-107000000D01*
X131500000Y-102000000D02*
X131500000Y-101000000D01*
X120000000Y-105000000D02*
X120000000Y-107000000D01*
X118480000Y-100500000D02*
X118480000Y-102480000D01*
X129000000Y-104500000D02*
X131500000Y-102000000D01*
X120000000Y-107000000D02*
X121000000Y-108000000D01*
X121000000Y-108000000D02*
X128000000Y-108000000D01*
X129000000Y-107000000D02*
X129000000Y-104500000D01*
D36*
X131000000Y-101000000D02*
X130950000Y-100950000D01*
D35*
X130950000Y-100950000D02*
X129500000Y-100950000D01*
X131000000Y-101000000D02*
X132712500Y-101000000D01*
D36*
%TO.N,GND*%
X129000000Y-90500000D02*
X128000000Y-90500000D01*
X129295000Y-90205000D02*
X129000000Y-90500000D01*
X130345000Y-90205000D02*
X129295000Y-90205000D01*
D37*
%TO.N,/USB_D-*%
X129518000Y-92155000D02*
X130345000Y-92155000D01*
X127948000Y-93725000D02*
X129518000Y-92155000D01*
%TO.N,/USB_D+*%
X130221000Y-91629000D02*
X130345000Y-91505000D01*
X129500000Y-91629000D02*
X130221000Y-91629000D01*
X129407632Y-91629000D02*
X129500000Y-91629000D01*
X127761632Y-93275000D02*
X129407632Y-91629000D01*
D36*
%TO.N,+3.3VA*%
X110000000Y-98712500D02*
X109712500Y-98712500D01*
%TO.N,/NRST*%
X113250000Y-94750000D02*
X113500000Y-95000000D01*
X113500000Y-95000000D02*
X113500000Y-96500000D01*
X113500000Y-96500000D02*
X113000000Y-97000000D01*
X111500000Y-98000000D02*
X111500000Y-100000000D01*
X112000000Y-100500000D02*
X112520000Y-100500000D01*
X113000000Y-97000000D02*
X112500000Y-97000000D01*
X110837500Y-94750000D02*
X113250000Y-94750000D01*
X111500000Y-100000000D02*
X112000000Y-100500000D01*
X112500000Y-97000000D02*
X111500000Y-98000000D01*
%TO.N,GND*%
X112350000Y-95792980D02*
X111807019Y-95250000D01*
X111807019Y-95250000D02*
X110837500Y-95250000D01*
X117250000Y-97689599D02*
X117250000Y-98662500D01*
X116500000Y-97000000D02*
X116560401Y-97000000D01*
X116560401Y-97000000D02*
X117250000Y-97689599D01*
X114500000Y-100500000D02*
X113480000Y-100500000D01*
X107500000Y-100500000D02*
X107500000Y-101500000D01*
X107500000Y-99000000D02*
X107500000Y-98000000D01*
X107520000Y-92480000D02*
X107500000Y-92500000D01*
X108500000Y-92480000D02*
X107520000Y-92480000D01*
%TO.N,/I2C2_SDA*%
X115510000Y-104000000D02*
X115510000Y-104990000D01*
X115510000Y-104990000D02*
X114770000Y-105730000D01*
X114770000Y-105730000D02*
X114770000Y-107000000D01*
%TO.N,/I2C2_SCL*%
X110990000Y-104000000D02*
X110990000Y-104490000D01*
X110990000Y-104490000D02*
X112230000Y-105730000D01*
X112230000Y-105730000D02*
X112230000Y-107000000D01*
X116250000Y-98662500D02*
X116250000Y-99750000D01*
X116250000Y-99750000D02*
X115000000Y-101000000D01*
X115000000Y-101000000D02*
X115000000Y-103000000D01*
X115000000Y-103000000D02*
X111000000Y-103000000D01*
X111000000Y-103000000D02*
X110990000Y-103010000D01*
X110990000Y-103010000D02*
X110990000Y-104000000D01*
%TO.N,GND*%
X117520000Y-100500000D02*
X117250000Y-100230000D01*
X117250000Y-100230000D02*
X117250000Y-98662500D01*
%TO.N,/HSE_OUT*%
X110837500Y-94250000D02*
X108250000Y-94250000D01*
X108250000Y-94250000D02*
X107020000Y-95480000D01*
X107020000Y-95480000D02*
X105500000Y-95480000D01*
%TO.N,/I2C2_SDA*%
X116750000Y-98662500D02*
X116750000Y-100250000D01*
X116750000Y-100250000D02*
X115510000Y-101490000D01*
X115510000Y-101490000D02*
X115510000Y-104000000D01*
%TO.N,+3.3V*%
X117750000Y-98662500D02*
X118162500Y-98662500D01*
X118162500Y-98662500D02*
X118480000Y-98980000D01*
X118480000Y-98980000D02*
X118480000Y-100500000D01*
%TO.N,/USART1_RX*%
X105730000Y-79500000D02*
X105730000Y-80730000D01*
X105730000Y-80730000D02*
X107500000Y-82500000D01*
X107500000Y-82500000D02*
X113000000Y-82500000D01*
X113000000Y-82500000D02*
X114750000Y-84250000D01*
X114750000Y-84250000D02*
X114750000Y-90337500D01*
%TO.N,/USART1_TX*%
X115250000Y-90337500D02*
X115250000Y-83750000D01*
X115250000Y-83750000D02*
X113500000Y-82000000D01*
X113500000Y-82000000D02*
X109500000Y-82000000D01*
X109500000Y-82000000D02*
X108270000Y-80770000D01*
X108270000Y-80770000D02*
X108270000Y-79500000D01*
%TO.N,/BOOT0*%
X114250000Y-90337500D02*
X114250000Y-84750000D01*
X114250000Y-84750000D02*
X112500000Y-83000000D01*
X112500000Y-83000000D02*
X102000000Y-83000000D01*
X102000000Y-83000000D02*
X101000000Y-84000000D01*
X101000000Y-84000000D02*
X101000000Y-87990000D01*
%TO.N,/SWDIO*%
X122540000Y-79500000D02*
X122500000Y-79540000D01*
X122500000Y-79540000D02*
X122500000Y-83500000D01*
X122500000Y-83500000D02*
X120000000Y-86000000D01*
X120000000Y-86000000D02*
X120000000Y-89500000D01*
X120000000Y-89500000D02*
X118000000Y-91500000D01*
X118000000Y-92500000D02*
X118250000Y-92750000D01*
X118000000Y-91500000D02*
X118000000Y-92500000D01*
X118250000Y-92750000D02*
X119162500Y-92750000D01*
%TO.N,/SWCLK*%
X117750000Y-90337500D02*
X117750000Y-85750000D01*
X117750000Y-85750000D02*
X120000000Y-83500000D01*
X120000000Y-83500000D02*
X120000000Y-79500000D01*
D37*
%TO.N,/USB_D+*%
X119162500Y-93250000D02*
X120268751Y-93250000D01*
X120268751Y-93250000D02*
X120293751Y-93275000D01*
%TO.N,/USB_D-*%
X119162500Y-93750000D02*
X120268751Y-93750000D01*
X120268751Y-93750000D02*
X120293751Y-93725000D01*
D36*
%TO.N,/HSE_IN*%
X105500000Y-93480000D02*
X104520000Y-93480000D01*
X104520000Y-93480000D02*
X104000000Y-94000000D01*
X104000000Y-94000000D02*
X102500000Y-94000000D01*
X102500000Y-94000000D02*
X101650000Y-93150000D01*
X101650000Y-93150000D02*
X101650000Y-92900000D01*
X110837500Y-93750000D02*
X108250000Y-93750000D01*
X108250000Y-93750000D02*
X107980000Y-93480000D01*
X107980000Y-93480000D02*
X105500000Y-93480000D01*
%TO.N,/HSE_OUT*%
X105500000Y-95480000D02*
X104230000Y-95480000D01*
X104230000Y-95480000D02*
X103850000Y-95100000D01*
D35*
%TO.N,+3.3V*%
X111725000Y-86500000D02*
X111725000Y-87705000D01*
X111725000Y-87705000D02*
X112020000Y-88000000D01*
%TO.N,GND*%
X113275000Y-86500000D02*
X113275000Y-87705000D01*
X113275000Y-87705000D02*
X112980000Y-88000000D01*
D36*
%TO.N,+3.3V*%
X119162500Y-91750000D02*
X120250000Y-91750000D01*
X120250000Y-91750000D02*
X120480000Y-91520000D01*
X120480000Y-91520000D02*
X121500000Y-91520000D01*
%TO.N,GND*%
X121500000Y-92480000D02*
X120520000Y-92480000D01*
X120520000Y-92480000D02*
X120290000Y-92250000D01*
X120290000Y-92250000D02*
X119162500Y-92250000D01*
X112750000Y-90337500D02*
X112750000Y-89250000D01*
X112750000Y-89250000D02*
X112980000Y-89020000D01*
X112980000Y-89020000D02*
X112980000Y-88000000D01*
%TO.N,+3.3V*%
X112250000Y-90337500D02*
X112250000Y-89250000D01*
X112020000Y-89020000D02*
X112020000Y-88000000D01*
X112250000Y-89250000D02*
X112020000Y-89020000D01*
X110837500Y-91750000D02*
X109750000Y-91750000D01*
X109500000Y-91500000D02*
X108520000Y-91500000D01*
X108520000Y-91500000D02*
X108500000Y-91520000D01*
X109750000Y-91750000D02*
X109500000Y-91500000D01*
%TO.N,GND*%
X109000000Y-95000000D02*
X109745466Y-95000000D01*
X109745466Y-95000000D02*
X109995466Y-95250000D01*
X109995466Y-95250000D02*
X110837500Y-95250000D01*
%TO.N,+3.3VA*%
X109995466Y-95750000D02*
X110837500Y-95750000D01*
X109000000Y-95960000D02*
X109785466Y-95960000D01*
X109785466Y-95960000D02*
X109995466Y-95750000D01*
%TO.N,/SW_BOOT0*%
X99010000Y-89010000D02*
X101000000Y-89010000D01*
X98770000Y-89250000D02*
X99010000Y-89010000D01*
X96930000Y-89250000D02*
X98770000Y-89250000D01*
D37*
%TO.N,/USB_D+*%
X125735000Y-92510000D02*
X125000000Y-92510000D01*
X126500000Y-93275000D02*
X125735000Y-92510000D01*
X126500000Y-93275000D02*
X127761632Y-93275000D01*
%TO.N,/USB_D-*%
X120293751Y-93725000D02*
X127948000Y-93725000D01*
%TO.N,/USB_D+*%
X120293751Y-93275000D02*
X126500000Y-93275000D01*
D36*
%TO.N,GND*%
X133000000Y-99500000D02*
X132990000Y-99490000D01*
X132990000Y-99490000D02*
X132990000Y-98500000D01*
D35*
X130450000Y-100000000D02*
X129500000Y-99050000D01*
X132500000Y-100000000D02*
X130450000Y-100000000D01*
X133000000Y-99500000D02*
X132500000Y-100000000D01*
%TD*%
%TA.AperFunction,Conductor*%
%TO.N,+3.3V*%
G36*
X127500000Y-104999999D02*
G01*
X127500000Y-104000000D01*
X128500000Y-104000000D01*
X127500000Y-104999999D01*
G37*
%TD.AperFunction*%
%TD*%
%TA.AperFunction,Conductor*%
%TO.N,+3.3V*%
G36*
X125015677Y-98019685D02*
G01*
X125036319Y-98036319D01*
X125463681Y-98463681D01*
X125497166Y-98525004D01*
X125500000Y-98551362D01*
X125500000Y-100376000D01*
X125480315Y-100443039D01*
X125427511Y-100488794D01*
X125376000Y-100500000D01*
X124500000Y-100500000D01*
X124500000Y-104000000D01*
X124000000Y-104000000D01*
X124000000Y-101000000D01*
X123536319Y-100536319D01*
X123502834Y-100474996D01*
X123500000Y-100448638D01*
X123500000Y-98551362D01*
X123519685Y-98484323D01*
X123536319Y-98463681D01*
X123963681Y-98036319D01*
X124025004Y-98002834D01*
X124051362Y-98000000D01*
X124948638Y-98000000D01*
X125015677Y-98019685D01*
G37*
%TD.AperFunction*%
%TD*%
%TA.AperFunction,Conductor*%
%TO.N,VBUS*%
G36*
X123497166Y-101025004D02*
G01*
X123500000Y-101051362D01*
X123500000Y-101376000D01*
X123480315Y-101443039D01*
X123427511Y-101488794D01*
X123376000Y-101500000D01*
X122124000Y-101500000D01*
X122056961Y-101480315D01*
X122011206Y-101427511D01*
X122000000Y-101376000D01*
X122000000Y-101000000D01*
X123483513Y-101000000D01*
X123497166Y-101025004D01*
G37*
%TD.AperFunction*%
%TD*%
%TA.AperFunction,Conductor*%
%TO.N,VBUS*%
G36*
X129500000Y-93500000D02*
G01*
X129499999Y-93500000D01*
X128500000Y-94500000D01*
X128000000Y-94500000D01*
X129500000Y-93000000D01*
X129500000Y-93500000D01*
G37*
%TD.AperFunction*%
%TD*%
%TA.AperFunction,Conductor*%
%TO.N,VBUS*%
G36*
X123463681Y-100963681D02*
G01*
X123478384Y-100990608D01*
X123484420Y-101000000D01*
X123000000Y-101000000D01*
X123000000Y-100500000D01*
X123463681Y-100963681D01*
G37*
%TD.AperFunction*%
%TD*%
%TA.AperFunction,Conductor*%
%TO.N,+3.3V*%
G36*
X127500000Y-104999999D02*
G01*
X127500000Y-105948638D01*
X127480315Y-106015677D01*
X127463681Y-106036319D01*
X126536319Y-106963681D01*
X126474996Y-106997166D01*
X126448638Y-107000000D01*
X122551362Y-107000000D01*
X122484323Y-106980315D01*
X122463681Y-106963681D01*
X122036319Y-106536319D01*
X122002834Y-106474996D01*
X122000000Y-106448638D01*
X122000000Y-104551362D01*
X122019685Y-104484323D01*
X122036319Y-104463681D01*
X122463681Y-104036319D01*
X122525004Y-104002834D01*
X122551362Y-104000000D01*
X123500000Y-104000000D01*
X126000000Y-104000000D01*
X127463681Y-102536319D01*
X127490608Y-102521615D01*
X127500000Y-102515579D01*
X127500000Y-104999999D01*
G37*
%TD.AperFunction*%
%TD*%
%TA.AperFunction,Conductor*%
%TO.N,+3.3V*%
G36*
X129992652Y-100325185D02*
G01*
X130013294Y-100341819D01*
X130111985Y-100440510D01*
X130215024Y-100499999D01*
X130215026Y-100500000D01*
X128515082Y-100500000D01*
X128519685Y-100484323D01*
X128536319Y-100463681D01*
X128658181Y-100341819D01*
X128719504Y-100308334D01*
X128745862Y-100305500D01*
X129925613Y-100305500D01*
X129992652Y-100325185D01*
G37*
%TD.AperFunction*%
%TD*%
%TA.AperFunction,Conductor*%
%TO.N,+3.3V*%
G36*
X130237515Y-100512984D02*
G01*
X130377525Y-100550500D01*
X130377526Y-100550500D01*
X130394257Y-100550500D01*
X130411739Y-100555762D01*
X130426328Y-100565278D01*
X130443039Y-100570185D01*
X130454981Y-100583967D01*
X130470260Y-100593933D01*
X130477388Y-100609826D01*
X130488794Y-100622989D01*
X130493975Y-100646807D01*
X130498854Y-100657684D01*
X130497825Y-100664506D01*
X130500000Y-100674500D01*
X130500000Y-102376000D01*
X130480315Y-102443039D01*
X130427511Y-102488794D01*
X130376000Y-102500000D01*
X130000000Y-102500000D01*
X130500000Y-102000000D01*
X128500000Y-102000000D01*
X128500000Y-100551362D01*
X128508644Y-100521921D01*
X128513413Y-100500000D01*
X130215026Y-100500000D01*
X130237515Y-100512984D01*
G37*
%TD.AperFunction*%
%TD*%
%TA.AperFunction,Conductor*%
%TO.N,+3.3V*%
G36*
X130000000Y-102500000D02*
G01*
X129999999Y-102500000D01*
X128500000Y-104000000D01*
X127500000Y-104000000D01*
X127500000Y-102516487D01*
X127525004Y-102502834D01*
X127551362Y-102500000D01*
X128050000Y-102500000D01*
X128500000Y-102000000D01*
X130500000Y-102000000D01*
X130000000Y-102500000D01*
G37*
%TD.AperFunction*%
%TD*%
%TA.AperFunction,Conductor*%
%TO.N,GND*%
G36*
X128000000Y-100499999D02*
G01*
X128000000Y-100000000D01*
X128499999Y-100000000D01*
X128000000Y-100499999D01*
G37*
%TD.AperFunction*%
%TD*%
%TA.AperFunction,Conductor*%
%TO.N,+3.3V*%
G36*
X124500000Y-100999999D02*
G01*
X124500000Y-100500000D01*
X124999999Y-100500000D01*
X124500000Y-100999999D01*
G37*
%TD.AperFunction*%
%TD*%
%TA.AperFunction,Conductor*%
%TO.N,+3.3V*%
G36*
X124000000Y-104000000D02*
G01*
X123500000Y-104000000D01*
X124000000Y-103500000D01*
X124000000Y-104000000D01*
G37*
%TD.AperFunction*%
%TD*%
%TA.AperFunction,Conductor*%
%TO.N,+3.3V*%
G36*
X125000000Y-104000000D02*
G01*
X124500000Y-104000000D01*
X124500000Y-103500000D01*
X125000000Y-104000000D01*
G37*
%TD.AperFunction*%
%TD*%
%TA.AperFunction,Conductor*%
%TO.N,GND*%
G36*
X127000000Y-99500000D02*
G01*
X126000000Y-100500000D01*
X126000000Y-98500000D01*
X126000000Y-98000000D01*
X126000000Y-97500000D01*
X127000000Y-97500000D01*
X127000000Y-99500000D01*
G37*
%TD.AperFunction*%
%TD*%
%TA.AperFunction,Conductor*%
%TO.N,GND*%
G36*
X126000000Y-98000000D02*
G01*
X125500000Y-97500000D01*
X126000000Y-97500000D01*
X126000000Y-98000000D01*
G37*
%TD.AperFunction*%
%TD*%
%TA.AperFunction,Conductor*%
%TO.N,VBUS*%
G36*
X128036319Y-94963681D02*
G01*
X127974996Y-94997166D01*
X127948638Y-95000000D01*
X124999999Y-95000000D01*
X124500000Y-95499999D01*
X124500000Y-95500000D01*
X124000000Y-95000000D01*
X124463681Y-94536319D01*
X124525004Y-94502834D01*
X124551362Y-94500000D01*
X128000000Y-94500000D01*
X128500000Y-94500000D01*
X128036319Y-94963681D01*
G37*
%TD.AperFunction*%
%TA.AperFunction,Conductor*%
G36*
X129650135Y-92680500D02*
G01*
X130876000Y-92680499D01*
X130943039Y-92700184D01*
X130988794Y-92752987D01*
X131000000Y-92804499D01*
X131000000Y-93376000D01*
X130980315Y-93443039D01*
X130927511Y-93488794D01*
X130876000Y-93500000D01*
X129500000Y-93500000D01*
X129500000Y-92802299D01*
X129519685Y-92735260D01*
X129572489Y-92689505D01*
X129638295Y-92679126D01*
X129650135Y-92680500D01*
G37*
%TD.AperFunction*%
%TD*%
%TA.AperFunction,Conductor*%
%TO.N,VBUS*%
G36*
X124500000Y-95500000D02*
G01*
X124500000Y-96948638D01*
X124480315Y-97015677D01*
X124463681Y-97036319D01*
X123000000Y-98499999D01*
X123000000Y-98500000D01*
X123000000Y-101000000D01*
X122000000Y-101000000D01*
X121036319Y-100036319D01*
X121002834Y-99974996D01*
X121000000Y-99948638D01*
X121000000Y-98551362D01*
X121019685Y-98484323D01*
X121036319Y-98463681D01*
X122500000Y-97000000D01*
X122500000Y-95551362D01*
X122519685Y-95484323D01*
X122536319Y-95463681D01*
X122963681Y-95036319D01*
X123025004Y-95002834D01*
X123051362Y-95000000D01*
X124000000Y-95000000D01*
X124500000Y-95500000D01*
G37*
%TD.AperFunction*%
%TD*%
%TA.AperFunction,Conductor*%
%TO.N,GND*%
G36*
X128015677Y-95519685D02*
G01*
X128036319Y-95536319D01*
X128463681Y-95963681D01*
X128497166Y-96025004D01*
X128500000Y-96051362D01*
X128500000Y-97080054D01*
X128414672Y-96994726D01*
X128414668Y-96994723D01*
X128308133Y-96923538D01*
X128308124Y-96923533D01*
X128189744Y-96874499D01*
X128189738Y-96874497D01*
X128064071Y-96849500D01*
X128064069Y-96849500D01*
X127935931Y-96849500D01*
X127935929Y-96849500D01*
X127810261Y-96874497D01*
X127810256Y-96874499D01*
X127771432Y-96890580D01*
X127701963Y-96898047D01*
X127639484Y-96866772D01*
X127603832Y-96806682D01*
X127606327Y-96736857D01*
X127609421Y-96728564D01*
X127625499Y-96689749D01*
X127625499Y-96689748D01*
X127625501Y-96689744D01*
X127650500Y-96564069D01*
X127650500Y-96435931D01*
X127650500Y-96435928D01*
X127625502Y-96310261D01*
X127625501Y-96310260D01*
X127625501Y-96310256D01*
X127576465Y-96191873D01*
X127576464Y-96191872D01*
X127576461Y-96191866D01*
X127505276Y-96085331D01*
X127505273Y-96085327D01*
X127414672Y-95994726D01*
X127414668Y-95994723D01*
X127308133Y-95923538D01*
X127308124Y-95923533D01*
X127189744Y-95874499D01*
X127189738Y-95874497D01*
X127064071Y-95849500D01*
X127064069Y-95849500D01*
X126935931Y-95849500D01*
X126935929Y-95849500D01*
X126810261Y-95874497D01*
X126810255Y-95874499D01*
X126691875Y-95923533D01*
X126691866Y-95923538D01*
X126585331Y-95994723D01*
X126585327Y-95994726D01*
X126494726Y-96085327D01*
X126494723Y-96085331D01*
X126423538Y-96191866D01*
X126423533Y-96191875D01*
X126374499Y-96310255D01*
X126374497Y-96310261D01*
X126349500Y-96435928D01*
X126349500Y-96435931D01*
X126349500Y-96564069D01*
X126349500Y-96564071D01*
X126349499Y-96564071D01*
X126374497Y-96689738D01*
X126374499Y-96689744D01*
X126423533Y-96808124D01*
X126423538Y-96808133D01*
X126494723Y-96914668D01*
X126494726Y-96914672D01*
X126585327Y-97005273D01*
X126585331Y-97005276D01*
X126691866Y-97076461D01*
X126691875Y-97076466D01*
X126713277Y-97085331D01*
X126810256Y-97125501D01*
X126810260Y-97125501D01*
X126810261Y-97125502D01*
X126935928Y-97150500D01*
X126935931Y-97150500D01*
X127064071Y-97150500D01*
X127150914Y-97133225D01*
X127189744Y-97125501D01*
X127228564Y-97109420D01*
X127298033Y-97101951D01*
X127360513Y-97133225D01*
X127396166Y-97193314D01*
X127393673Y-97263139D01*
X127390580Y-97271432D01*
X127374499Y-97310256D01*
X127374497Y-97310261D01*
X127349500Y-97435928D01*
X127349500Y-97435931D01*
X127349500Y-97564069D01*
X127349500Y-97564071D01*
X127349499Y-97564071D01*
X127374497Y-97689738D01*
X127374499Y-97689744D01*
X127423533Y-97808124D01*
X127423538Y-97808133D01*
X127494723Y-97914668D01*
X127494726Y-97914672D01*
X127585327Y-98005273D01*
X127585331Y-98005276D01*
X127691866Y-98076461D01*
X127691872Y-98076464D01*
X127691873Y-98076465D01*
X127810256Y-98125501D01*
X127810260Y-98125501D01*
X127810261Y-98125502D01*
X127935928Y-98150500D01*
X127935931Y-98150500D01*
X128064071Y-98150500D01*
X128148615Y-98133682D01*
X128189744Y-98125501D01*
X128308127Y-98076465D01*
X128414669Y-98005276D01*
X128500000Y-97919945D01*
X128500000Y-100000000D01*
X128000000Y-100000000D01*
X128000000Y-100499999D01*
X128000000Y-101876000D01*
X127980315Y-101943039D01*
X127927511Y-101988794D01*
X127876000Y-102000000D01*
X127499999Y-102000000D01*
X126536319Y-102963681D01*
X126474996Y-102997166D01*
X126448638Y-103000000D01*
X125551362Y-103000000D01*
X125484323Y-102980315D01*
X125463681Y-102963681D01*
X125036319Y-102536319D01*
X125002834Y-102474996D01*
X125000000Y-102448638D01*
X125000000Y-102064071D01*
X125349499Y-102064071D01*
X125374497Y-102189738D01*
X125374499Y-102189744D01*
X125423533Y-102308124D01*
X125423538Y-102308133D01*
X125494723Y-102414668D01*
X125494726Y-102414672D01*
X125585327Y-102505273D01*
X125585331Y-102505276D01*
X125691866Y-102576461D01*
X125691872Y-102576464D01*
X125691873Y-102576465D01*
X125810256Y-102625501D01*
X125810260Y-102625501D01*
X125810261Y-102625502D01*
X125935928Y-102650500D01*
X125935931Y-102650500D01*
X126064071Y-102650500D01*
X126148615Y-102633682D01*
X126189744Y-102625501D01*
X126308127Y-102576465D01*
X126414669Y-102505276D01*
X126505276Y-102414669D01*
X126576465Y-102308127D01*
X126625501Y-102189744D01*
X126650500Y-102064069D01*
X126650500Y-101935931D01*
X126650500Y-101935928D01*
X126625502Y-101810261D01*
X126625501Y-101810260D01*
X126625501Y-101810256D01*
X126609419Y-101771432D01*
X126601951Y-101701965D01*
X126633226Y-101639486D01*
X126693315Y-101603833D01*
X126763140Y-101606326D01*
X126771425Y-101609416D01*
X126810256Y-101625501D01*
X126810260Y-101625501D01*
X126810261Y-101625502D01*
X126935928Y-101650500D01*
X126935931Y-101650500D01*
X127064071Y-101650500D01*
X127148615Y-101633682D01*
X127189744Y-101625501D01*
X127308127Y-101576465D01*
X127414669Y-101505276D01*
X127505276Y-101414669D01*
X127576465Y-101308127D01*
X127625501Y-101189744D01*
X127650500Y-101064069D01*
X127650500Y-100935931D01*
X127650500Y-100935928D01*
X127625502Y-100810261D01*
X127625501Y-100810260D01*
X127625501Y-100810256D01*
X127576465Y-100691873D01*
X127576464Y-100691872D01*
X127576461Y-100691866D01*
X127505276Y-100585331D01*
X127505273Y-100585327D01*
X127414672Y-100494726D01*
X127414668Y-100494723D01*
X127308133Y-100423538D01*
X127308124Y-100423533D01*
X127189744Y-100374499D01*
X127189738Y-100374497D01*
X127064071Y-100349500D01*
X127064069Y-100349500D01*
X126935931Y-100349500D01*
X126935929Y-100349500D01*
X126810261Y-100374497D01*
X126810255Y-100374499D01*
X126691875Y-100423533D01*
X126691866Y-100423538D01*
X126585331Y-100494723D01*
X126585327Y-100494726D01*
X126494726Y-100585327D01*
X126494723Y-100585331D01*
X126423538Y-100691866D01*
X126423533Y-100691875D01*
X126374499Y-100810255D01*
X126374497Y-100810261D01*
X126349500Y-100935928D01*
X126349500Y-100935931D01*
X126349500Y-101064069D01*
X126349500Y-101064071D01*
X126349499Y-101064071D01*
X126374497Y-101189738D01*
X126374500Y-101189748D01*
X126390579Y-101228566D01*
X126398048Y-101298035D01*
X126366772Y-101360514D01*
X126306683Y-101396166D01*
X126236858Y-101393672D01*
X126228566Y-101390579D01*
X126189748Y-101374500D01*
X126189738Y-101374497D01*
X126064071Y-101349500D01*
X126064069Y-101349500D01*
X125935931Y-101349500D01*
X125935929Y-101349500D01*
X125810261Y-101374497D01*
X125810255Y-101374499D01*
X125691875Y-101423533D01*
X125691866Y-101423538D01*
X125585331Y-101494723D01*
X125585327Y-101494726D01*
X125494726Y-101585327D01*
X125494723Y-101585331D01*
X125423538Y-101691866D01*
X125423533Y-101691875D01*
X125374499Y-101810255D01*
X125374497Y-101810261D01*
X125349500Y-101935928D01*
X125349500Y-101935931D01*
X125349500Y-102064069D01*
X125349500Y-102064071D01*
X125349499Y-102064071D01*
X125000000Y-102064071D01*
X125000000Y-101551362D01*
X125019685Y-101484323D01*
X125036319Y-101463681D01*
X125435929Y-101064071D01*
X126000000Y-100500000D01*
X127000000Y-99500000D01*
X127000000Y-97500000D01*
X126000000Y-97500000D01*
X125500000Y-97500000D01*
X125124000Y-97500000D01*
X125056961Y-97480315D01*
X125011206Y-97427511D01*
X125000000Y-97376000D01*
X125000000Y-95624000D01*
X125019685Y-95556961D01*
X125072489Y-95511206D01*
X125124000Y-95500000D01*
X127948638Y-95500000D01*
X128015677Y-95519685D01*
G37*
%TD.AperFunction*%
%TD*%
%TA.AperFunction,Conductor*%
%TO.N,GND*%
G36*
X131515677Y-98019685D02*
G01*
X131536319Y-98036319D01*
X131963681Y-98463681D01*
X131997166Y-98525004D01*
X132000000Y-98551362D01*
X132000000Y-99448638D01*
X131980315Y-99515677D01*
X131963681Y-99536319D01*
X131536319Y-99963681D01*
X131509391Y-99978384D01*
X131500000Y-99984419D01*
X131500000Y-99419945D01*
X131505273Y-99414672D01*
X131505276Y-99414669D01*
X131576465Y-99308127D01*
X131625501Y-99189744D01*
X131650500Y-99064069D01*
X131650500Y-98935931D01*
X131650500Y-98935928D01*
X131625502Y-98810261D01*
X131625501Y-98810260D01*
X131625501Y-98810256D01*
X131576465Y-98691873D01*
X131576464Y-98691872D01*
X131576461Y-98691866D01*
X131505276Y-98585331D01*
X131505273Y-98585327D01*
X131500000Y-98580054D01*
X131500000Y-98015081D01*
X131515677Y-98019685D01*
G37*
%TD.AperFunction*%
%TD*%
%TA.AperFunction,Conductor*%
%TO.N,GND*%
G36*
X131500000Y-98015081D02*
G01*
X131500000Y-98500000D01*
X131419946Y-98500000D01*
X131414672Y-98494726D01*
X131414668Y-98494723D01*
X131308133Y-98423538D01*
X131308124Y-98423533D01*
X131189744Y-98374499D01*
X131189738Y-98374497D01*
X131064071Y-98349500D01*
X131064069Y-98349500D01*
X130935931Y-98349500D01*
X130935929Y-98349500D01*
X130810261Y-98374497D01*
X130810255Y-98374499D01*
X130691875Y-98423533D01*
X130691866Y-98423538D01*
X130585331Y-98494723D01*
X130585327Y-98494726D01*
X130580053Y-98500000D01*
X129500000Y-98500000D01*
X129500000Y-98000000D01*
X130000000Y-98000000D01*
X131448638Y-98000000D01*
X131500000Y-98015081D01*
G37*
%TD.AperFunction*%
%TD*%
%TA.AperFunction,Conductor*%
%TO.N,GND*%
G36*
X130000000Y-98000000D02*
G01*
X129500000Y-98000000D01*
X129500000Y-97500000D01*
X130000000Y-98000000D01*
G37*
%TD.AperFunction*%
%TD*%
%TA.AperFunction,Conductor*%
%TO.N,GND*%
G36*
X129500000Y-97500000D02*
G01*
X129500000Y-98500000D01*
X130580053Y-98500000D01*
X130494726Y-98585327D01*
X130494723Y-98585331D01*
X130423538Y-98691866D01*
X130423533Y-98691875D01*
X130374499Y-98810255D01*
X130374497Y-98810261D01*
X130349500Y-98935928D01*
X130349500Y-98935931D01*
X130349500Y-99064069D01*
X130349500Y-99064071D01*
X130349499Y-99064071D01*
X130374497Y-99189738D01*
X130374499Y-99189744D01*
X130423533Y-99308124D01*
X130423538Y-99308133D01*
X130494723Y-99414668D01*
X130494726Y-99414672D01*
X130585327Y-99505273D01*
X130585331Y-99505276D01*
X130691866Y-99576461D01*
X130691872Y-99576464D01*
X130691873Y-99576465D01*
X130810256Y-99625501D01*
X130810260Y-99625501D01*
X130810261Y-99625502D01*
X130935928Y-99650500D01*
X130935931Y-99650500D01*
X131064071Y-99650500D01*
X131148615Y-99633682D01*
X131189744Y-99625501D01*
X131308127Y-99576465D01*
X131414669Y-99505276D01*
X131500000Y-99419945D01*
X131500000Y-99983512D01*
X131474996Y-99997166D01*
X131448638Y-100000000D01*
X128500000Y-100000000D01*
X128500000Y-97919945D01*
X128505273Y-97914672D01*
X128505276Y-97914669D01*
X128576465Y-97808127D01*
X128625501Y-97689744D01*
X128650500Y-97564069D01*
X128650500Y-97435931D01*
X128650500Y-97435928D01*
X128625502Y-97310261D01*
X128625501Y-97310260D01*
X128625501Y-97310256D01*
X128576465Y-97191873D01*
X128576464Y-97191872D01*
X128576461Y-97191866D01*
X128505276Y-97085331D01*
X128505273Y-97085327D01*
X128500000Y-97080054D01*
X128500000Y-96500000D01*
X129500000Y-97500000D01*
G37*
%TD.AperFunction*%
%TD*%
M02*
