%TF.GenerationSoftware,KiCad,Pcbnew,9.0.4*%
%TF.CreationDate,2025-10-05T01:24:38+05:30*%
%TF.ProjectId,Project4,50726f6a-6563-4743-942e-6b696361645f,rev?*%
%TF.SameCoordinates,Original*%
%TF.FileFunction,Legend,Top*%
%TF.FilePolarity,Positive*%
%FSLAX46Y46*%
G04 Gerber Fmt 4.6, Leading zero omitted, Abs format (unit mm)*
G04 Created by KiCad (PCBNEW 9.0.4) date 2025-10-05 01:24:38*
%MOMM*%
%LPD*%
G01*
G04 APERTURE LIST*
%ADD10C,0.300000*%
%ADD11C,0.100000*%
%ADD12C,0.150000*%
%ADD13C,0.120000*%
G04 APERTURE END LIST*
D10*
X96729400Y-102516917D02*
X96800828Y-102302632D01*
X96800828Y-102302632D02*
X96800828Y-101945489D01*
X96800828Y-101945489D02*
X96729400Y-101802632D01*
X96729400Y-101802632D02*
X96657971Y-101731203D01*
X96657971Y-101731203D02*
X96515114Y-101659774D01*
X96515114Y-101659774D02*
X96372257Y-101659774D01*
X96372257Y-101659774D02*
X96229400Y-101731203D01*
X96229400Y-101731203D02*
X96157971Y-101802632D01*
X96157971Y-101802632D02*
X96086542Y-101945489D01*
X96086542Y-101945489D02*
X96015114Y-102231203D01*
X96015114Y-102231203D02*
X95943685Y-102374060D01*
X95943685Y-102374060D02*
X95872257Y-102445489D01*
X95872257Y-102445489D02*
X95729400Y-102516917D01*
X95729400Y-102516917D02*
X95586542Y-102516917D01*
X95586542Y-102516917D02*
X95443685Y-102445489D01*
X95443685Y-102445489D02*
X95372257Y-102374060D01*
X95372257Y-102374060D02*
X95300828Y-102231203D01*
X95300828Y-102231203D02*
X95300828Y-101874060D01*
X95300828Y-101874060D02*
X95372257Y-101659774D01*
X95300828Y-101231203D02*
X95300828Y-100374061D01*
X96800828Y-100802632D02*
X95300828Y-100802632D01*
X96800828Y-99874061D02*
X95300828Y-99874061D01*
X95300828Y-99874061D02*
X96372257Y-99374061D01*
X96372257Y-99374061D02*
X95300828Y-98874061D01*
X95300828Y-98874061D02*
X96800828Y-98874061D01*
X95300828Y-98302632D02*
X95300828Y-97374060D01*
X95300828Y-97374060D02*
X95872257Y-97874060D01*
X95872257Y-97874060D02*
X95872257Y-97659775D01*
X95872257Y-97659775D02*
X95943685Y-97516918D01*
X95943685Y-97516918D02*
X96015114Y-97445489D01*
X96015114Y-97445489D02*
X96157971Y-97374060D01*
X96157971Y-97374060D02*
X96515114Y-97374060D01*
X96515114Y-97374060D02*
X96657971Y-97445489D01*
X96657971Y-97445489D02*
X96729400Y-97516918D01*
X96729400Y-97516918D02*
X96800828Y-97659775D01*
X96800828Y-97659775D02*
X96800828Y-98088346D01*
X96800828Y-98088346D02*
X96729400Y-98231203D01*
X96729400Y-98231203D02*
X96657971Y-98302632D01*
X95443685Y-96802632D02*
X95372257Y-96731204D01*
X95372257Y-96731204D02*
X95300828Y-96588347D01*
X95300828Y-96588347D02*
X95300828Y-96231204D01*
X95300828Y-96231204D02*
X95372257Y-96088347D01*
X95372257Y-96088347D02*
X95443685Y-96016918D01*
X95443685Y-96016918D02*
X95586542Y-95945489D01*
X95586542Y-95945489D02*
X95729400Y-95945489D01*
X95729400Y-95945489D02*
X95943685Y-96016918D01*
X95943685Y-96016918D02*
X96800828Y-96874061D01*
X96800828Y-96874061D02*
X96800828Y-95945489D01*
D11*
X132803884Y-85372419D02*
X132803884Y-86181942D01*
X132803884Y-86181942D02*
X132851503Y-86277180D01*
X132851503Y-86277180D02*
X132899122Y-86324800D01*
X132899122Y-86324800D02*
X132994360Y-86372419D01*
X132994360Y-86372419D02*
X133184836Y-86372419D01*
X133184836Y-86372419D02*
X133280074Y-86324800D01*
X133280074Y-86324800D02*
X133327693Y-86277180D01*
X133327693Y-86277180D02*
X133375312Y-86181942D01*
X133375312Y-86181942D02*
X133375312Y-85372419D01*
X133803884Y-86324800D02*
X133946741Y-86372419D01*
X133946741Y-86372419D02*
X134184836Y-86372419D01*
X134184836Y-86372419D02*
X134280074Y-86324800D01*
X134280074Y-86324800D02*
X134327693Y-86277180D01*
X134327693Y-86277180D02*
X134375312Y-86181942D01*
X134375312Y-86181942D02*
X134375312Y-86086704D01*
X134375312Y-86086704D02*
X134327693Y-85991466D01*
X134327693Y-85991466D02*
X134280074Y-85943847D01*
X134280074Y-85943847D02*
X134184836Y-85896228D01*
X134184836Y-85896228D02*
X133994360Y-85848609D01*
X133994360Y-85848609D02*
X133899122Y-85800990D01*
X133899122Y-85800990D02*
X133851503Y-85753371D01*
X133851503Y-85753371D02*
X133803884Y-85658133D01*
X133803884Y-85658133D02*
X133803884Y-85562895D01*
X133803884Y-85562895D02*
X133851503Y-85467657D01*
X133851503Y-85467657D02*
X133899122Y-85420038D01*
X133899122Y-85420038D02*
X133994360Y-85372419D01*
X133994360Y-85372419D02*
X134232455Y-85372419D01*
X134232455Y-85372419D02*
X134375312Y-85420038D01*
X135137217Y-85848609D02*
X135280074Y-85896228D01*
X135280074Y-85896228D02*
X135327693Y-85943847D01*
X135327693Y-85943847D02*
X135375312Y-86039085D01*
X135375312Y-86039085D02*
X135375312Y-86181942D01*
X135375312Y-86181942D02*
X135327693Y-86277180D01*
X135327693Y-86277180D02*
X135280074Y-86324800D01*
X135280074Y-86324800D02*
X135184836Y-86372419D01*
X135184836Y-86372419D02*
X134803884Y-86372419D01*
X134803884Y-86372419D02*
X134803884Y-85372419D01*
X134803884Y-85372419D02*
X135137217Y-85372419D01*
X135137217Y-85372419D02*
X135232455Y-85420038D01*
X135232455Y-85420038D02*
X135280074Y-85467657D01*
X135280074Y-85467657D02*
X135327693Y-85562895D01*
X135327693Y-85562895D02*
X135327693Y-85658133D01*
X135327693Y-85658133D02*
X135280074Y-85753371D01*
X135280074Y-85753371D02*
X135232455Y-85800990D01*
X135232455Y-85800990D02*
X135137217Y-85848609D01*
X135137217Y-85848609D02*
X134803884Y-85848609D01*
X94137217Y-93348609D02*
X94280074Y-93396228D01*
X94280074Y-93396228D02*
X94327693Y-93443847D01*
X94327693Y-93443847D02*
X94375312Y-93539085D01*
X94375312Y-93539085D02*
X94375312Y-93681942D01*
X94375312Y-93681942D02*
X94327693Y-93777180D01*
X94327693Y-93777180D02*
X94280074Y-93824800D01*
X94280074Y-93824800D02*
X94184836Y-93872419D01*
X94184836Y-93872419D02*
X93803884Y-93872419D01*
X93803884Y-93872419D02*
X93803884Y-92872419D01*
X93803884Y-92872419D02*
X94137217Y-92872419D01*
X94137217Y-92872419D02*
X94232455Y-92920038D01*
X94232455Y-92920038D02*
X94280074Y-92967657D01*
X94280074Y-92967657D02*
X94327693Y-93062895D01*
X94327693Y-93062895D02*
X94327693Y-93158133D01*
X94327693Y-93158133D02*
X94280074Y-93253371D01*
X94280074Y-93253371D02*
X94232455Y-93300990D01*
X94232455Y-93300990D02*
X94137217Y-93348609D01*
X94137217Y-93348609D02*
X93803884Y-93348609D01*
X94994360Y-92872419D02*
X95184836Y-92872419D01*
X95184836Y-92872419D02*
X95280074Y-92920038D01*
X95280074Y-92920038D02*
X95375312Y-93015276D01*
X95375312Y-93015276D02*
X95422931Y-93205752D01*
X95422931Y-93205752D02*
X95422931Y-93539085D01*
X95422931Y-93539085D02*
X95375312Y-93729561D01*
X95375312Y-93729561D02*
X95280074Y-93824800D01*
X95280074Y-93824800D02*
X95184836Y-93872419D01*
X95184836Y-93872419D02*
X94994360Y-93872419D01*
X94994360Y-93872419D02*
X94899122Y-93824800D01*
X94899122Y-93824800D02*
X94803884Y-93729561D01*
X94803884Y-93729561D02*
X94756265Y-93539085D01*
X94756265Y-93539085D02*
X94756265Y-93205752D01*
X94756265Y-93205752D02*
X94803884Y-93015276D01*
X94803884Y-93015276D02*
X94899122Y-92920038D01*
X94899122Y-92920038D02*
X94994360Y-92872419D01*
X96041979Y-92872419D02*
X96232455Y-92872419D01*
X96232455Y-92872419D02*
X96327693Y-92920038D01*
X96327693Y-92920038D02*
X96422931Y-93015276D01*
X96422931Y-93015276D02*
X96470550Y-93205752D01*
X96470550Y-93205752D02*
X96470550Y-93539085D01*
X96470550Y-93539085D02*
X96422931Y-93729561D01*
X96422931Y-93729561D02*
X96327693Y-93824800D01*
X96327693Y-93824800D02*
X96232455Y-93872419D01*
X96232455Y-93872419D02*
X96041979Y-93872419D01*
X96041979Y-93872419D02*
X95946741Y-93824800D01*
X95946741Y-93824800D02*
X95851503Y-93729561D01*
X95851503Y-93729561D02*
X95803884Y-93539085D01*
X95803884Y-93539085D02*
X95803884Y-93205752D01*
X95803884Y-93205752D02*
X95851503Y-93015276D01*
X95851503Y-93015276D02*
X95946741Y-92920038D01*
X95946741Y-92920038D02*
X96041979Y-92872419D01*
X96756265Y-92872419D02*
X97327693Y-92872419D01*
X97041979Y-93872419D02*
X97041979Y-92872419D01*
X105803884Y-107372419D02*
X105803884Y-106372419D01*
X106232455Y-106467657D02*
X106280074Y-106420038D01*
X106280074Y-106420038D02*
X106375312Y-106372419D01*
X106375312Y-106372419D02*
X106613407Y-106372419D01*
X106613407Y-106372419D02*
X106708645Y-106420038D01*
X106708645Y-106420038D02*
X106756264Y-106467657D01*
X106756264Y-106467657D02*
X106803883Y-106562895D01*
X106803883Y-106562895D02*
X106803883Y-106658133D01*
X106803883Y-106658133D02*
X106756264Y-106800990D01*
X106756264Y-106800990D02*
X106184836Y-107372419D01*
X106184836Y-107372419D02*
X106803883Y-107372419D01*
X107803883Y-107277180D02*
X107756264Y-107324800D01*
X107756264Y-107324800D02*
X107613407Y-107372419D01*
X107613407Y-107372419D02*
X107518169Y-107372419D01*
X107518169Y-107372419D02*
X107375312Y-107324800D01*
X107375312Y-107324800D02*
X107280074Y-107229561D01*
X107280074Y-107229561D02*
X107232455Y-107134323D01*
X107232455Y-107134323D02*
X107184836Y-106943847D01*
X107184836Y-106943847D02*
X107184836Y-106800990D01*
X107184836Y-106800990D02*
X107232455Y-106610514D01*
X107232455Y-106610514D02*
X107280074Y-106515276D01*
X107280074Y-106515276D02*
X107375312Y-106420038D01*
X107375312Y-106420038D02*
X107518169Y-106372419D01*
X107518169Y-106372419D02*
X107613407Y-106372419D01*
X107613407Y-106372419D02*
X107756264Y-106420038D01*
X107756264Y-106420038D02*
X107803883Y-106467657D01*
X119756265Y-82324800D02*
X119899122Y-82372419D01*
X119899122Y-82372419D02*
X120137217Y-82372419D01*
X120137217Y-82372419D02*
X120232455Y-82324800D01*
X120232455Y-82324800D02*
X120280074Y-82277180D01*
X120280074Y-82277180D02*
X120327693Y-82181942D01*
X120327693Y-82181942D02*
X120327693Y-82086704D01*
X120327693Y-82086704D02*
X120280074Y-81991466D01*
X120280074Y-81991466D02*
X120232455Y-81943847D01*
X120232455Y-81943847D02*
X120137217Y-81896228D01*
X120137217Y-81896228D02*
X119946741Y-81848609D01*
X119946741Y-81848609D02*
X119851503Y-81800990D01*
X119851503Y-81800990D02*
X119803884Y-81753371D01*
X119803884Y-81753371D02*
X119756265Y-81658133D01*
X119756265Y-81658133D02*
X119756265Y-81562895D01*
X119756265Y-81562895D02*
X119803884Y-81467657D01*
X119803884Y-81467657D02*
X119851503Y-81420038D01*
X119851503Y-81420038D02*
X119946741Y-81372419D01*
X119946741Y-81372419D02*
X120184836Y-81372419D01*
X120184836Y-81372419D02*
X120327693Y-81420038D01*
X120661027Y-81372419D02*
X120899122Y-82372419D01*
X120899122Y-82372419D02*
X121089598Y-81658133D01*
X121089598Y-81658133D02*
X121280074Y-82372419D01*
X121280074Y-82372419D02*
X121518170Y-81372419D01*
X121899122Y-82372419D02*
X121899122Y-81372419D01*
X121899122Y-81372419D02*
X122137217Y-81372419D01*
X122137217Y-81372419D02*
X122280074Y-81420038D01*
X122280074Y-81420038D02*
X122375312Y-81515276D01*
X122375312Y-81515276D02*
X122422931Y-81610514D01*
X122422931Y-81610514D02*
X122470550Y-81800990D01*
X122470550Y-81800990D02*
X122470550Y-81943847D01*
X122470550Y-81943847D02*
X122422931Y-82134323D01*
X122422931Y-82134323D02*
X122375312Y-82229561D01*
X122375312Y-82229561D02*
X122280074Y-82324800D01*
X122280074Y-82324800D02*
X122137217Y-82372419D01*
X122137217Y-82372419D02*
X121899122Y-82372419D01*
X105303884Y-81372419D02*
X105303884Y-82181942D01*
X105303884Y-82181942D02*
X105351503Y-82277180D01*
X105351503Y-82277180D02*
X105399122Y-82324800D01*
X105399122Y-82324800D02*
X105494360Y-82372419D01*
X105494360Y-82372419D02*
X105684836Y-82372419D01*
X105684836Y-82372419D02*
X105780074Y-82324800D01*
X105780074Y-82324800D02*
X105827693Y-82277180D01*
X105827693Y-82277180D02*
X105875312Y-82181942D01*
X105875312Y-82181942D02*
X105875312Y-81372419D01*
X106303884Y-82086704D02*
X106780074Y-82086704D01*
X106208646Y-82372419D02*
X106541979Y-81372419D01*
X106541979Y-81372419D02*
X106875312Y-82372419D01*
X107780074Y-82372419D02*
X107446741Y-81896228D01*
X107208646Y-82372419D02*
X107208646Y-81372419D01*
X107208646Y-81372419D02*
X107589598Y-81372419D01*
X107589598Y-81372419D02*
X107684836Y-81420038D01*
X107684836Y-81420038D02*
X107732455Y-81467657D01*
X107732455Y-81467657D02*
X107780074Y-81562895D01*
X107780074Y-81562895D02*
X107780074Y-81705752D01*
X107780074Y-81705752D02*
X107732455Y-81800990D01*
X107732455Y-81800990D02*
X107684836Y-81848609D01*
X107684836Y-81848609D02*
X107589598Y-81896228D01*
X107589598Y-81896228D02*
X107208646Y-81896228D01*
X108065789Y-81372419D02*
X108637217Y-81372419D01*
X108351503Y-82372419D02*
X108351503Y-81372419D01*
D12*
X133333333Y-97954819D02*
X133000000Y-97478628D01*
X132761905Y-97954819D02*
X132761905Y-96954819D01*
X132761905Y-96954819D02*
X133142857Y-96954819D01*
X133142857Y-96954819D02*
X133238095Y-97002438D01*
X133238095Y-97002438D02*
X133285714Y-97050057D01*
X133285714Y-97050057D02*
X133333333Y-97145295D01*
X133333333Y-97145295D02*
X133333333Y-97288152D01*
X133333333Y-97288152D02*
X133285714Y-97383390D01*
X133285714Y-97383390D02*
X133238095Y-97431009D01*
X133238095Y-97431009D02*
X133142857Y-97478628D01*
X133142857Y-97478628D02*
X132761905Y-97478628D01*
X134285714Y-97954819D02*
X133714286Y-97954819D01*
X134000000Y-97954819D02*
X134000000Y-96954819D01*
X134000000Y-96954819D02*
X133904762Y-97097676D01*
X133904762Y-97097676D02*
X133809524Y-97192914D01*
X133809524Y-97192914D02*
X133714286Y-97240533D01*
X129333333Y-102809580D02*
X129285714Y-102857200D01*
X129285714Y-102857200D02*
X129142857Y-102904819D01*
X129142857Y-102904819D02*
X129047619Y-102904819D01*
X129047619Y-102904819D02*
X128904762Y-102857200D01*
X128904762Y-102857200D02*
X128809524Y-102761961D01*
X128809524Y-102761961D02*
X128761905Y-102666723D01*
X128761905Y-102666723D02*
X128714286Y-102476247D01*
X128714286Y-102476247D02*
X128714286Y-102333390D01*
X128714286Y-102333390D02*
X128761905Y-102142914D01*
X128761905Y-102142914D02*
X128809524Y-102047676D01*
X128809524Y-102047676D02*
X128904762Y-101952438D01*
X128904762Y-101952438D02*
X129047619Y-101904819D01*
X129047619Y-101904819D02*
X129142857Y-101904819D01*
X129142857Y-101904819D02*
X129285714Y-101952438D01*
X129285714Y-101952438D02*
X129333333Y-102000057D01*
X129714286Y-102000057D02*
X129761905Y-101952438D01*
X129761905Y-101952438D02*
X129857143Y-101904819D01*
X129857143Y-101904819D02*
X130095238Y-101904819D01*
X130095238Y-101904819D02*
X130190476Y-101952438D01*
X130190476Y-101952438D02*
X130238095Y-102000057D01*
X130238095Y-102000057D02*
X130285714Y-102095295D01*
X130285714Y-102095295D02*
X130285714Y-102190533D01*
X130285714Y-102190533D02*
X130238095Y-102333390D01*
X130238095Y-102333390D02*
X129666667Y-102904819D01*
X129666667Y-102904819D02*
X130285714Y-102904819D01*
X123738095Y-106954819D02*
X123738095Y-107764342D01*
X123738095Y-107764342D02*
X123785714Y-107859580D01*
X123785714Y-107859580D02*
X123833333Y-107907200D01*
X123833333Y-107907200D02*
X123928571Y-107954819D01*
X123928571Y-107954819D02*
X124119047Y-107954819D01*
X124119047Y-107954819D02*
X124214285Y-107907200D01*
X124214285Y-107907200D02*
X124261904Y-107859580D01*
X124261904Y-107859580D02*
X124309523Y-107764342D01*
X124309523Y-107764342D02*
X124309523Y-106954819D01*
X125309523Y-107954819D02*
X124738095Y-107954819D01*
X125023809Y-107954819D02*
X125023809Y-106954819D01*
X125023809Y-106954819D02*
X124928571Y-107097676D01*
X124928571Y-107097676D02*
X124833333Y-107192914D01*
X124833333Y-107192914D02*
X124738095Y-107240533D01*
X107833333Y-90859580D02*
X107785714Y-90907200D01*
X107785714Y-90907200D02*
X107642857Y-90954819D01*
X107642857Y-90954819D02*
X107547619Y-90954819D01*
X107547619Y-90954819D02*
X107404762Y-90907200D01*
X107404762Y-90907200D02*
X107309524Y-90811961D01*
X107309524Y-90811961D02*
X107261905Y-90716723D01*
X107261905Y-90716723D02*
X107214286Y-90526247D01*
X107214286Y-90526247D02*
X107214286Y-90383390D01*
X107214286Y-90383390D02*
X107261905Y-90192914D01*
X107261905Y-90192914D02*
X107309524Y-90097676D01*
X107309524Y-90097676D02*
X107404762Y-90002438D01*
X107404762Y-90002438D02*
X107547619Y-89954819D01*
X107547619Y-89954819D02*
X107642857Y-89954819D01*
X107642857Y-89954819D02*
X107785714Y-90002438D01*
X107785714Y-90002438D02*
X107833333Y-90050057D01*
X108690476Y-90288152D02*
X108690476Y-90954819D01*
X108452381Y-89907200D02*
X108214286Y-90621485D01*
X108214286Y-90621485D02*
X108833333Y-90621485D01*
X110333333Y-88359580D02*
X110285714Y-88407200D01*
X110285714Y-88407200D02*
X110142857Y-88454819D01*
X110142857Y-88454819D02*
X110047619Y-88454819D01*
X110047619Y-88454819D02*
X109904762Y-88407200D01*
X109904762Y-88407200D02*
X109809524Y-88311961D01*
X109809524Y-88311961D02*
X109761905Y-88216723D01*
X109761905Y-88216723D02*
X109714286Y-88026247D01*
X109714286Y-88026247D02*
X109714286Y-87883390D01*
X109714286Y-87883390D02*
X109761905Y-87692914D01*
X109761905Y-87692914D02*
X109809524Y-87597676D01*
X109809524Y-87597676D02*
X109904762Y-87502438D01*
X109904762Y-87502438D02*
X110047619Y-87454819D01*
X110047619Y-87454819D02*
X110142857Y-87454819D01*
X110142857Y-87454819D02*
X110285714Y-87502438D01*
X110285714Y-87502438D02*
X110333333Y-87550057D01*
X110666667Y-87454819D02*
X111333333Y-87454819D01*
X111333333Y-87454819D02*
X110904762Y-88454819D01*
X103857142Y-91359580D02*
X103809523Y-91407200D01*
X103809523Y-91407200D02*
X103666666Y-91454819D01*
X103666666Y-91454819D02*
X103571428Y-91454819D01*
X103571428Y-91454819D02*
X103428571Y-91407200D01*
X103428571Y-91407200D02*
X103333333Y-91311961D01*
X103333333Y-91311961D02*
X103285714Y-91216723D01*
X103285714Y-91216723D02*
X103238095Y-91026247D01*
X103238095Y-91026247D02*
X103238095Y-90883390D01*
X103238095Y-90883390D02*
X103285714Y-90692914D01*
X103285714Y-90692914D02*
X103333333Y-90597676D01*
X103333333Y-90597676D02*
X103428571Y-90502438D01*
X103428571Y-90502438D02*
X103571428Y-90454819D01*
X103571428Y-90454819D02*
X103666666Y-90454819D01*
X103666666Y-90454819D02*
X103809523Y-90502438D01*
X103809523Y-90502438D02*
X103857142Y-90550057D01*
X104809523Y-91454819D02*
X104238095Y-91454819D01*
X104523809Y-91454819D02*
X104523809Y-90454819D01*
X104523809Y-90454819D02*
X104428571Y-90597676D01*
X104428571Y-90597676D02*
X104333333Y-90692914D01*
X104333333Y-90692914D02*
X104238095Y-90740533D01*
X105190476Y-90550057D02*
X105238095Y-90502438D01*
X105238095Y-90502438D02*
X105333333Y-90454819D01*
X105333333Y-90454819D02*
X105571428Y-90454819D01*
X105571428Y-90454819D02*
X105666666Y-90502438D01*
X105666666Y-90502438D02*
X105714285Y-90550057D01*
X105714285Y-90550057D02*
X105761904Y-90645295D01*
X105761904Y-90645295D02*
X105761904Y-90740533D01*
X105761904Y-90740533D02*
X105714285Y-90883390D01*
X105714285Y-90883390D02*
X105142857Y-91454819D01*
X105142857Y-91454819D02*
X105761904Y-91454819D01*
X103857142Y-97359580D02*
X103809523Y-97407200D01*
X103809523Y-97407200D02*
X103666666Y-97454819D01*
X103666666Y-97454819D02*
X103571428Y-97454819D01*
X103571428Y-97454819D02*
X103428571Y-97407200D01*
X103428571Y-97407200D02*
X103333333Y-97311961D01*
X103333333Y-97311961D02*
X103285714Y-97216723D01*
X103285714Y-97216723D02*
X103238095Y-97026247D01*
X103238095Y-97026247D02*
X103238095Y-96883390D01*
X103238095Y-96883390D02*
X103285714Y-96692914D01*
X103285714Y-96692914D02*
X103333333Y-96597676D01*
X103333333Y-96597676D02*
X103428571Y-96502438D01*
X103428571Y-96502438D02*
X103571428Y-96454819D01*
X103571428Y-96454819D02*
X103666666Y-96454819D01*
X103666666Y-96454819D02*
X103809523Y-96502438D01*
X103809523Y-96502438D02*
X103857142Y-96550057D01*
X104809523Y-97454819D02*
X104238095Y-97454819D01*
X104523809Y-97454819D02*
X104523809Y-96454819D01*
X104523809Y-96454819D02*
X104428571Y-96597676D01*
X104428571Y-96597676D02*
X104333333Y-96692914D01*
X104333333Y-96692914D02*
X104238095Y-96740533D01*
X105142857Y-96454819D02*
X105761904Y-96454819D01*
X105761904Y-96454819D02*
X105428571Y-96835771D01*
X105428571Y-96835771D02*
X105571428Y-96835771D01*
X105571428Y-96835771D02*
X105666666Y-96883390D01*
X105666666Y-96883390D02*
X105714285Y-96931009D01*
X105714285Y-96931009D02*
X105761904Y-97026247D01*
X105761904Y-97026247D02*
X105761904Y-97264342D01*
X105761904Y-97264342D02*
X105714285Y-97359580D01*
X105714285Y-97359580D02*
X105666666Y-97407200D01*
X105666666Y-97407200D02*
X105571428Y-97454819D01*
X105571428Y-97454819D02*
X105285714Y-97454819D01*
X105285714Y-97454819D02*
X105190476Y-97407200D01*
X105190476Y-97407200D02*
X105142857Y-97359580D01*
X99023809Y-93978628D02*
X99023809Y-94454819D01*
X98690476Y-93454819D02*
X99023809Y-93978628D01*
X99023809Y-93978628D02*
X99357142Y-93454819D01*
X100214285Y-94454819D02*
X99642857Y-94454819D01*
X99928571Y-94454819D02*
X99928571Y-93454819D01*
X99928571Y-93454819D02*
X99833333Y-93597676D01*
X99833333Y-93597676D02*
X99738095Y-93692914D01*
X99738095Y-93692914D02*
X99642857Y-93740533D01*
X124333333Y-95179580D02*
X124285714Y-95227200D01*
X124285714Y-95227200D02*
X124142857Y-95274819D01*
X124142857Y-95274819D02*
X124047619Y-95274819D01*
X124047619Y-95274819D02*
X123904762Y-95227200D01*
X123904762Y-95227200D02*
X123809524Y-95131961D01*
X123809524Y-95131961D02*
X123761905Y-95036723D01*
X123761905Y-95036723D02*
X123714286Y-94846247D01*
X123714286Y-94846247D02*
X123714286Y-94703390D01*
X123714286Y-94703390D02*
X123761905Y-94512914D01*
X123761905Y-94512914D02*
X123809524Y-94417676D01*
X123809524Y-94417676D02*
X123904762Y-94322438D01*
X123904762Y-94322438D02*
X124047619Y-94274819D01*
X124047619Y-94274819D02*
X124142857Y-94274819D01*
X124142857Y-94274819D02*
X124285714Y-94322438D01*
X124285714Y-94322438D02*
X124333333Y-94370057D01*
X125285714Y-95274819D02*
X124714286Y-95274819D01*
X125000000Y-95274819D02*
X125000000Y-94274819D01*
X125000000Y-94274819D02*
X124904762Y-94417676D01*
X124904762Y-94417676D02*
X124809524Y-94512914D01*
X124809524Y-94512914D02*
X124714286Y-94560533D01*
X132761905Y-102954819D02*
X132761905Y-101954819D01*
X132761905Y-101954819D02*
X133000000Y-101954819D01*
X133000000Y-101954819D02*
X133142857Y-102002438D01*
X133142857Y-102002438D02*
X133238095Y-102097676D01*
X133238095Y-102097676D02*
X133285714Y-102192914D01*
X133285714Y-102192914D02*
X133333333Y-102383390D01*
X133333333Y-102383390D02*
X133333333Y-102526247D01*
X133333333Y-102526247D02*
X133285714Y-102716723D01*
X133285714Y-102716723D02*
X133238095Y-102811961D01*
X133238095Y-102811961D02*
X133142857Y-102907200D01*
X133142857Y-102907200D02*
X133000000Y-102954819D01*
X133000000Y-102954819D02*
X132761905Y-102954819D01*
X134285714Y-102954819D02*
X133714286Y-102954819D01*
X134000000Y-102954819D02*
X134000000Y-101954819D01*
X134000000Y-101954819D02*
X133904762Y-102097676D01*
X133904762Y-102097676D02*
X133809524Y-102192914D01*
X133809524Y-102192914D02*
X133714286Y-102240533D01*
X112357142Y-102359580D02*
X112309523Y-102407200D01*
X112309523Y-102407200D02*
X112166666Y-102454819D01*
X112166666Y-102454819D02*
X112071428Y-102454819D01*
X112071428Y-102454819D02*
X111928571Y-102407200D01*
X111928571Y-102407200D02*
X111833333Y-102311961D01*
X111833333Y-102311961D02*
X111785714Y-102216723D01*
X111785714Y-102216723D02*
X111738095Y-102026247D01*
X111738095Y-102026247D02*
X111738095Y-101883390D01*
X111738095Y-101883390D02*
X111785714Y-101692914D01*
X111785714Y-101692914D02*
X111833333Y-101597676D01*
X111833333Y-101597676D02*
X111928571Y-101502438D01*
X111928571Y-101502438D02*
X112071428Y-101454819D01*
X112071428Y-101454819D02*
X112166666Y-101454819D01*
X112166666Y-101454819D02*
X112309523Y-101502438D01*
X112309523Y-101502438D02*
X112357142Y-101550057D01*
X113309523Y-102454819D02*
X112738095Y-102454819D01*
X113023809Y-102454819D02*
X113023809Y-101454819D01*
X113023809Y-101454819D02*
X112928571Y-101597676D01*
X112928571Y-101597676D02*
X112833333Y-101692914D01*
X112833333Y-101692914D02*
X112738095Y-101740533D01*
X114261904Y-102454819D02*
X113690476Y-102454819D01*
X113976190Y-102454819D02*
X113976190Y-101454819D01*
X113976190Y-101454819D02*
X113880952Y-101597676D01*
X113880952Y-101597676D02*
X113785714Y-101692914D01*
X113785714Y-101692914D02*
X113690476Y-101740533D01*
X117833333Y-101859580D02*
X117785714Y-101907200D01*
X117785714Y-101907200D02*
X117642857Y-101954819D01*
X117642857Y-101954819D02*
X117547619Y-101954819D01*
X117547619Y-101954819D02*
X117404762Y-101907200D01*
X117404762Y-101907200D02*
X117309524Y-101811961D01*
X117309524Y-101811961D02*
X117261905Y-101716723D01*
X117261905Y-101716723D02*
X117214286Y-101526247D01*
X117214286Y-101526247D02*
X117214286Y-101383390D01*
X117214286Y-101383390D02*
X117261905Y-101192914D01*
X117261905Y-101192914D02*
X117309524Y-101097676D01*
X117309524Y-101097676D02*
X117404762Y-101002438D01*
X117404762Y-101002438D02*
X117547619Y-100954819D01*
X117547619Y-100954819D02*
X117642857Y-100954819D01*
X117642857Y-100954819D02*
X117785714Y-101002438D01*
X117785714Y-101002438D02*
X117833333Y-101050057D01*
X118738095Y-100954819D02*
X118261905Y-100954819D01*
X118261905Y-100954819D02*
X118214286Y-101431009D01*
X118214286Y-101431009D02*
X118261905Y-101383390D01*
X118261905Y-101383390D02*
X118357143Y-101335771D01*
X118357143Y-101335771D02*
X118595238Y-101335771D01*
X118595238Y-101335771D02*
X118690476Y-101383390D01*
X118690476Y-101383390D02*
X118738095Y-101431009D01*
X118738095Y-101431009D02*
X118785714Y-101526247D01*
X118785714Y-101526247D02*
X118785714Y-101764342D01*
X118785714Y-101764342D02*
X118738095Y-101859580D01*
X118738095Y-101859580D02*
X118690476Y-101907200D01*
X118690476Y-101907200D02*
X118595238Y-101954819D01*
X118595238Y-101954819D02*
X118357143Y-101954819D01*
X118357143Y-101954819D02*
X118261905Y-101907200D01*
X118261905Y-101907200D02*
X118214286Y-101859580D01*
X112333333Y-85359580D02*
X112285714Y-85407200D01*
X112285714Y-85407200D02*
X112142857Y-85454819D01*
X112142857Y-85454819D02*
X112047619Y-85454819D01*
X112047619Y-85454819D02*
X111904762Y-85407200D01*
X111904762Y-85407200D02*
X111809524Y-85311961D01*
X111809524Y-85311961D02*
X111761905Y-85216723D01*
X111761905Y-85216723D02*
X111714286Y-85026247D01*
X111714286Y-85026247D02*
X111714286Y-84883390D01*
X111714286Y-84883390D02*
X111761905Y-84692914D01*
X111761905Y-84692914D02*
X111809524Y-84597676D01*
X111809524Y-84597676D02*
X111904762Y-84502438D01*
X111904762Y-84502438D02*
X112047619Y-84454819D01*
X112047619Y-84454819D02*
X112142857Y-84454819D01*
X112142857Y-84454819D02*
X112285714Y-84502438D01*
X112285714Y-84502438D02*
X112333333Y-84550057D01*
X112666667Y-84454819D02*
X113285714Y-84454819D01*
X113285714Y-84454819D02*
X112952381Y-84835771D01*
X112952381Y-84835771D02*
X113095238Y-84835771D01*
X113095238Y-84835771D02*
X113190476Y-84883390D01*
X113190476Y-84883390D02*
X113238095Y-84931009D01*
X113238095Y-84931009D02*
X113285714Y-85026247D01*
X113285714Y-85026247D02*
X113285714Y-85264342D01*
X113285714Y-85264342D02*
X113238095Y-85359580D01*
X113238095Y-85359580D02*
X113190476Y-85407200D01*
X113190476Y-85407200D02*
X113095238Y-85454819D01*
X113095238Y-85454819D02*
X112809524Y-85454819D01*
X112809524Y-85454819D02*
X112714286Y-85407200D01*
X112714286Y-85407200D02*
X112666667Y-85359580D01*
X122859580Y-92166666D02*
X122907200Y-92214285D01*
X122907200Y-92214285D02*
X122954819Y-92357142D01*
X122954819Y-92357142D02*
X122954819Y-92452380D01*
X122954819Y-92452380D02*
X122907200Y-92595237D01*
X122907200Y-92595237D02*
X122811961Y-92690475D01*
X122811961Y-92690475D02*
X122716723Y-92738094D01*
X122716723Y-92738094D02*
X122526247Y-92785713D01*
X122526247Y-92785713D02*
X122383390Y-92785713D01*
X122383390Y-92785713D02*
X122192914Y-92738094D01*
X122192914Y-92738094D02*
X122097676Y-92690475D01*
X122097676Y-92690475D02*
X122002438Y-92595237D01*
X122002438Y-92595237D02*
X121954819Y-92452380D01*
X121954819Y-92452380D02*
X121954819Y-92357142D01*
X121954819Y-92357142D02*
X122002438Y-92214285D01*
X122002438Y-92214285D02*
X122050057Y-92166666D01*
X121954819Y-91309523D02*
X121954819Y-91499999D01*
X121954819Y-91499999D02*
X122002438Y-91595237D01*
X122002438Y-91595237D02*
X122050057Y-91642856D01*
X122050057Y-91642856D02*
X122192914Y-91738094D01*
X122192914Y-91738094D02*
X122383390Y-91785713D01*
X122383390Y-91785713D02*
X122764342Y-91785713D01*
X122764342Y-91785713D02*
X122859580Y-91738094D01*
X122859580Y-91738094D02*
X122907200Y-91690475D01*
X122907200Y-91690475D02*
X122954819Y-91595237D01*
X122954819Y-91595237D02*
X122954819Y-91404761D01*
X122954819Y-91404761D02*
X122907200Y-91309523D01*
X122907200Y-91309523D02*
X122859580Y-91261904D01*
X122859580Y-91261904D02*
X122764342Y-91214285D01*
X122764342Y-91214285D02*
X122526247Y-91214285D01*
X122526247Y-91214285D02*
X122431009Y-91261904D01*
X122431009Y-91261904D02*
X122383390Y-91309523D01*
X122383390Y-91309523D02*
X122335771Y-91404761D01*
X122335771Y-91404761D02*
X122335771Y-91595237D01*
X122335771Y-91595237D02*
X122383390Y-91690475D01*
X122383390Y-91690475D02*
X122431009Y-91738094D01*
X122431009Y-91738094D02*
X122526247Y-91785713D01*
X108333333Y-97359580D02*
X108285714Y-97407200D01*
X108285714Y-97407200D02*
X108142857Y-97454819D01*
X108142857Y-97454819D02*
X108047619Y-97454819D01*
X108047619Y-97454819D02*
X107904762Y-97407200D01*
X107904762Y-97407200D02*
X107809524Y-97311961D01*
X107809524Y-97311961D02*
X107761905Y-97216723D01*
X107761905Y-97216723D02*
X107714286Y-97026247D01*
X107714286Y-97026247D02*
X107714286Y-96883390D01*
X107714286Y-96883390D02*
X107761905Y-96692914D01*
X107761905Y-96692914D02*
X107809524Y-96597676D01*
X107809524Y-96597676D02*
X107904762Y-96502438D01*
X107904762Y-96502438D02*
X108047619Y-96454819D01*
X108047619Y-96454819D02*
X108142857Y-96454819D01*
X108142857Y-96454819D02*
X108285714Y-96502438D01*
X108285714Y-96502438D02*
X108333333Y-96550057D01*
X108904762Y-96883390D02*
X108809524Y-96835771D01*
X108809524Y-96835771D02*
X108761905Y-96788152D01*
X108761905Y-96788152D02*
X108714286Y-96692914D01*
X108714286Y-96692914D02*
X108714286Y-96645295D01*
X108714286Y-96645295D02*
X108761905Y-96550057D01*
X108761905Y-96550057D02*
X108809524Y-96502438D01*
X108809524Y-96502438D02*
X108904762Y-96454819D01*
X108904762Y-96454819D02*
X109095238Y-96454819D01*
X109095238Y-96454819D02*
X109190476Y-96502438D01*
X109190476Y-96502438D02*
X109238095Y-96550057D01*
X109238095Y-96550057D02*
X109285714Y-96645295D01*
X109285714Y-96645295D02*
X109285714Y-96692914D01*
X109285714Y-96692914D02*
X109238095Y-96788152D01*
X109238095Y-96788152D02*
X109190476Y-96835771D01*
X109190476Y-96835771D02*
X109095238Y-96883390D01*
X109095238Y-96883390D02*
X108904762Y-96883390D01*
X108904762Y-96883390D02*
X108809524Y-96931009D01*
X108809524Y-96931009D02*
X108761905Y-96978628D01*
X108761905Y-96978628D02*
X108714286Y-97073866D01*
X108714286Y-97073866D02*
X108714286Y-97264342D01*
X108714286Y-97264342D02*
X108761905Y-97359580D01*
X108761905Y-97359580D02*
X108809524Y-97407200D01*
X108809524Y-97407200D02*
X108904762Y-97454819D01*
X108904762Y-97454819D02*
X109095238Y-97454819D01*
X109095238Y-97454819D02*
X109190476Y-97407200D01*
X109190476Y-97407200D02*
X109238095Y-97359580D01*
X109238095Y-97359580D02*
X109285714Y-97264342D01*
X109285714Y-97264342D02*
X109285714Y-97073866D01*
X109285714Y-97073866D02*
X109238095Y-96978628D01*
X109238095Y-96978628D02*
X109190476Y-96931009D01*
X109190476Y-96931009D02*
X109095238Y-96883390D01*
X105813333Y-99359580D02*
X105765714Y-99407200D01*
X105765714Y-99407200D02*
X105622857Y-99454819D01*
X105622857Y-99454819D02*
X105527619Y-99454819D01*
X105527619Y-99454819D02*
X105384762Y-99407200D01*
X105384762Y-99407200D02*
X105289524Y-99311961D01*
X105289524Y-99311961D02*
X105241905Y-99216723D01*
X105241905Y-99216723D02*
X105194286Y-99026247D01*
X105194286Y-99026247D02*
X105194286Y-98883390D01*
X105194286Y-98883390D02*
X105241905Y-98692914D01*
X105241905Y-98692914D02*
X105289524Y-98597676D01*
X105289524Y-98597676D02*
X105384762Y-98502438D01*
X105384762Y-98502438D02*
X105527619Y-98454819D01*
X105527619Y-98454819D02*
X105622857Y-98454819D01*
X105622857Y-98454819D02*
X105765714Y-98502438D01*
X105765714Y-98502438D02*
X105813333Y-98550057D01*
X106289524Y-99454819D02*
X106480000Y-99454819D01*
X106480000Y-99454819D02*
X106575238Y-99407200D01*
X106575238Y-99407200D02*
X106622857Y-99359580D01*
X106622857Y-99359580D02*
X106718095Y-99216723D01*
X106718095Y-99216723D02*
X106765714Y-99026247D01*
X106765714Y-99026247D02*
X106765714Y-98645295D01*
X106765714Y-98645295D02*
X106718095Y-98550057D01*
X106718095Y-98550057D02*
X106670476Y-98502438D01*
X106670476Y-98502438D02*
X106575238Y-98454819D01*
X106575238Y-98454819D02*
X106384762Y-98454819D01*
X106384762Y-98454819D02*
X106289524Y-98502438D01*
X106289524Y-98502438D02*
X106241905Y-98550057D01*
X106241905Y-98550057D02*
X106194286Y-98645295D01*
X106194286Y-98645295D02*
X106194286Y-98883390D01*
X106194286Y-98883390D02*
X106241905Y-98978628D01*
X106241905Y-98978628D02*
X106289524Y-99026247D01*
X106289524Y-99026247D02*
X106384762Y-99073866D01*
X106384762Y-99073866D02*
X106575238Y-99073866D01*
X106575238Y-99073866D02*
X106670476Y-99026247D01*
X106670476Y-99026247D02*
X106718095Y-98978628D01*
X106718095Y-98978628D02*
X106765714Y-98883390D01*
X104857142Y-100859580D02*
X104809523Y-100907200D01*
X104809523Y-100907200D02*
X104666666Y-100954819D01*
X104666666Y-100954819D02*
X104571428Y-100954819D01*
X104571428Y-100954819D02*
X104428571Y-100907200D01*
X104428571Y-100907200D02*
X104333333Y-100811961D01*
X104333333Y-100811961D02*
X104285714Y-100716723D01*
X104285714Y-100716723D02*
X104238095Y-100526247D01*
X104238095Y-100526247D02*
X104238095Y-100383390D01*
X104238095Y-100383390D02*
X104285714Y-100192914D01*
X104285714Y-100192914D02*
X104333333Y-100097676D01*
X104333333Y-100097676D02*
X104428571Y-100002438D01*
X104428571Y-100002438D02*
X104571428Y-99954819D01*
X104571428Y-99954819D02*
X104666666Y-99954819D01*
X104666666Y-99954819D02*
X104809523Y-100002438D01*
X104809523Y-100002438D02*
X104857142Y-100050057D01*
X105809523Y-100954819D02*
X105238095Y-100954819D01*
X105523809Y-100954819D02*
X105523809Y-99954819D01*
X105523809Y-99954819D02*
X105428571Y-100097676D01*
X105428571Y-100097676D02*
X105333333Y-100192914D01*
X105333333Y-100192914D02*
X105238095Y-100240533D01*
X106428571Y-99954819D02*
X106523809Y-99954819D01*
X106523809Y-99954819D02*
X106619047Y-100002438D01*
X106619047Y-100002438D02*
X106666666Y-100050057D01*
X106666666Y-100050057D02*
X106714285Y-100145295D01*
X106714285Y-100145295D02*
X106761904Y-100335771D01*
X106761904Y-100335771D02*
X106761904Y-100573866D01*
X106761904Y-100573866D02*
X106714285Y-100764342D01*
X106714285Y-100764342D02*
X106666666Y-100859580D01*
X106666666Y-100859580D02*
X106619047Y-100907200D01*
X106619047Y-100907200D02*
X106523809Y-100954819D01*
X106523809Y-100954819D02*
X106428571Y-100954819D01*
X106428571Y-100954819D02*
X106333333Y-100907200D01*
X106333333Y-100907200D02*
X106285714Y-100859580D01*
X106285714Y-100859580D02*
X106238095Y-100764342D01*
X106238095Y-100764342D02*
X106190476Y-100573866D01*
X106190476Y-100573866D02*
X106190476Y-100335771D01*
X106190476Y-100335771D02*
X106238095Y-100145295D01*
X106238095Y-100145295D02*
X106285714Y-100050057D01*
X106285714Y-100050057D02*
X106333333Y-100002438D01*
X106333333Y-100002438D02*
X106428571Y-99954819D01*
X109166666Y-101431009D02*
X108833333Y-101431009D01*
X108833333Y-101954819D02*
X108833333Y-100954819D01*
X108833333Y-100954819D02*
X109309523Y-100954819D01*
X110023809Y-101431009D02*
X110166666Y-101478628D01*
X110166666Y-101478628D02*
X110214285Y-101526247D01*
X110214285Y-101526247D02*
X110261904Y-101621485D01*
X110261904Y-101621485D02*
X110261904Y-101764342D01*
X110261904Y-101764342D02*
X110214285Y-101859580D01*
X110214285Y-101859580D02*
X110166666Y-101907200D01*
X110166666Y-101907200D02*
X110071428Y-101954819D01*
X110071428Y-101954819D02*
X109690476Y-101954819D01*
X109690476Y-101954819D02*
X109690476Y-100954819D01*
X109690476Y-100954819D02*
X110023809Y-100954819D01*
X110023809Y-100954819D02*
X110119047Y-101002438D01*
X110119047Y-101002438D02*
X110166666Y-101050057D01*
X110166666Y-101050057D02*
X110214285Y-101145295D01*
X110214285Y-101145295D02*
X110214285Y-101240533D01*
X110214285Y-101240533D02*
X110166666Y-101335771D01*
X110166666Y-101335771D02*
X110119047Y-101383390D01*
X110119047Y-101383390D02*
X110023809Y-101431009D01*
X110023809Y-101431009D02*
X109690476Y-101431009D01*
X111214285Y-101954819D02*
X110642857Y-101954819D01*
X110928571Y-101954819D02*
X110928571Y-100954819D01*
X110928571Y-100954819D02*
X110833333Y-101097676D01*
X110833333Y-101097676D02*
X110738095Y-101192914D01*
X110738095Y-101192914D02*
X110642857Y-101240533D01*
X109333333Y-104454819D02*
X109000000Y-103978628D01*
X108761905Y-104454819D02*
X108761905Y-103454819D01*
X108761905Y-103454819D02*
X109142857Y-103454819D01*
X109142857Y-103454819D02*
X109238095Y-103502438D01*
X109238095Y-103502438D02*
X109285714Y-103550057D01*
X109285714Y-103550057D02*
X109333333Y-103645295D01*
X109333333Y-103645295D02*
X109333333Y-103788152D01*
X109333333Y-103788152D02*
X109285714Y-103883390D01*
X109285714Y-103883390D02*
X109238095Y-103931009D01*
X109238095Y-103931009D02*
X109142857Y-103978628D01*
X109142857Y-103978628D02*
X108761905Y-103978628D01*
X110190476Y-103788152D02*
X110190476Y-104454819D01*
X109952381Y-103407200D02*
X109714286Y-104121485D01*
X109714286Y-104121485D02*
X110333333Y-104121485D01*
X116833333Y-104454819D02*
X116500000Y-103978628D01*
X116261905Y-104454819D02*
X116261905Y-103454819D01*
X116261905Y-103454819D02*
X116642857Y-103454819D01*
X116642857Y-103454819D02*
X116738095Y-103502438D01*
X116738095Y-103502438D02*
X116785714Y-103550057D01*
X116785714Y-103550057D02*
X116833333Y-103645295D01*
X116833333Y-103645295D02*
X116833333Y-103788152D01*
X116833333Y-103788152D02*
X116785714Y-103883390D01*
X116785714Y-103883390D02*
X116738095Y-103931009D01*
X116738095Y-103931009D02*
X116642857Y-103978628D01*
X116642857Y-103978628D02*
X116261905Y-103978628D01*
X117738095Y-103454819D02*
X117261905Y-103454819D01*
X117261905Y-103454819D02*
X117214286Y-103931009D01*
X117214286Y-103931009D02*
X117261905Y-103883390D01*
X117261905Y-103883390D02*
X117357143Y-103835771D01*
X117357143Y-103835771D02*
X117595238Y-103835771D01*
X117595238Y-103835771D02*
X117690476Y-103883390D01*
X117690476Y-103883390D02*
X117738095Y-103931009D01*
X117738095Y-103931009D02*
X117785714Y-104026247D01*
X117785714Y-104026247D02*
X117785714Y-104264342D01*
X117785714Y-104264342D02*
X117738095Y-104359580D01*
X117738095Y-104359580D02*
X117690476Y-104407200D01*
X117690476Y-104407200D02*
X117595238Y-104454819D01*
X117595238Y-104454819D02*
X117357143Y-104454819D01*
X117357143Y-104454819D02*
X117261905Y-104407200D01*
X117261905Y-104407200D02*
X117214286Y-104359580D01*
X100833333Y-87454819D02*
X100500000Y-86978628D01*
X100261905Y-87454819D02*
X100261905Y-86454819D01*
X100261905Y-86454819D02*
X100642857Y-86454819D01*
X100642857Y-86454819D02*
X100738095Y-86502438D01*
X100738095Y-86502438D02*
X100785714Y-86550057D01*
X100785714Y-86550057D02*
X100833333Y-86645295D01*
X100833333Y-86645295D02*
X100833333Y-86788152D01*
X100833333Y-86788152D02*
X100785714Y-86883390D01*
X100785714Y-86883390D02*
X100738095Y-86931009D01*
X100738095Y-86931009D02*
X100642857Y-86978628D01*
X100642857Y-86978628D02*
X100261905Y-86978628D01*
X101214286Y-86550057D02*
X101261905Y-86502438D01*
X101261905Y-86502438D02*
X101357143Y-86454819D01*
X101357143Y-86454819D02*
X101595238Y-86454819D01*
X101595238Y-86454819D02*
X101690476Y-86502438D01*
X101690476Y-86502438D02*
X101738095Y-86550057D01*
X101738095Y-86550057D02*
X101785714Y-86645295D01*
X101785714Y-86645295D02*
X101785714Y-86740533D01*
X101785714Y-86740533D02*
X101738095Y-86883390D01*
X101738095Y-86883390D02*
X101166667Y-87454819D01*
X101166667Y-87454819D02*
X101785714Y-87454819D01*
X124833333Y-90954819D02*
X124500000Y-90478628D01*
X124261905Y-90954819D02*
X124261905Y-89954819D01*
X124261905Y-89954819D02*
X124642857Y-89954819D01*
X124642857Y-89954819D02*
X124738095Y-90002438D01*
X124738095Y-90002438D02*
X124785714Y-90050057D01*
X124785714Y-90050057D02*
X124833333Y-90145295D01*
X124833333Y-90145295D02*
X124833333Y-90288152D01*
X124833333Y-90288152D02*
X124785714Y-90383390D01*
X124785714Y-90383390D02*
X124738095Y-90431009D01*
X124738095Y-90431009D02*
X124642857Y-90478628D01*
X124642857Y-90478628D02*
X124261905Y-90478628D01*
X125166667Y-89954819D02*
X125785714Y-89954819D01*
X125785714Y-89954819D02*
X125452381Y-90335771D01*
X125452381Y-90335771D02*
X125595238Y-90335771D01*
X125595238Y-90335771D02*
X125690476Y-90383390D01*
X125690476Y-90383390D02*
X125738095Y-90431009D01*
X125738095Y-90431009D02*
X125785714Y-90526247D01*
X125785714Y-90526247D02*
X125785714Y-90764342D01*
X125785714Y-90764342D02*
X125738095Y-90859580D01*
X125738095Y-90859580D02*
X125690476Y-90907200D01*
X125690476Y-90907200D02*
X125595238Y-90954819D01*
X125595238Y-90954819D02*
X125309524Y-90954819D01*
X125309524Y-90954819D02*
X125214286Y-90907200D01*
X125214286Y-90907200D02*
X125166667Y-90859580D01*
X114238095Y-88104819D02*
X114238095Y-88914342D01*
X114238095Y-88914342D02*
X114285714Y-89009580D01*
X114285714Y-89009580D02*
X114333333Y-89057200D01*
X114333333Y-89057200D02*
X114428571Y-89104819D01*
X114428571Y-89104819D02*
X114619047Y-89104819D01*
X114619047Y-89104819D02*
X114714285Y-89057200D01*
X114714285Y-89057200D02*
X114761904Y-89009580D01*
X114761904Y-89009580D02*
X114809523Y-88914342D01*
X114809523Y-88914342D02*
X114809523Y-88104819D01*
X115238095Y-88200057D02*
X115285714Y-88152438D01*
X115285714Y-88152438D02*
X115380952Y-88104819D01*
X115380952Y-88104819D02*
X115619047Y-88104819D01*
X115619047Y-88104819D02*
X115714285Y-88152438D01*
X115714285Y-88152438D02*
X115761904Y-88200057D01*
X115761904Y-88200057D02*
X115809523Y-88295295D01*
X115809523Y-88295295D02*
X115809523Y-88390533D01*
X115809523Y-88390533D02*
X115761904Y-88533390D01*
X115761904Y-88533390D02*
X115190476Y-89104819D01*
X115190476Y-89104819D02*
X115809523Y-89104819D01*
D13*
%TO.C,R1*%
X133653641Y-98120000D02*
X133346359Y-98120000D01*
X133653641Y-98880000D02*
X133346359Y-98880000D01*
%TO.C,C2*%
X128765000Y-100261252D02*
X128765000Y-99738748D01*
X130235000Y-100261252D02*
X130235000Y-99738748D01*
D12*
%TO.C,J1*%
X135545000Y-87355000D02*
X135395000Y-87355000D01*
X132995000Y-87355000D02*
X131595000Y-87355000D01*
X135545000Y-87655000D02*
X135545000Y-87355000D01*
X129845000Y-89705000D02*
X129845000Y-88705000D01*
X129420000Y-92580000D02*
X129420000Y-93305000D01*
X129845000Y-93305000D02*
X129845000Y-94305000D01*
X129420000Y-93305000D02*
X129845000Y-93305000D01*
X135545000Y-95655000D02*
X135545000Y-95355000D01*
X135395000Y-95655000D02*
X135545000Y-95655000D01*
X131595000Y-95655000D02*
X132995000Y-95655000D01*
D13*
%TO.C,U1*%
X127910000Y-100650000D02*
X127910000Y-104410000D01*
X121090000Y-100650000D02*
X121090000Y-104410000D01*
X127910000Y-104410000D02*
X126650000Y-104410000D01*
X121090000Y-104410000D02*
X122350000Y-104410000D01*
X128140000Y-99610000D02*
X127810000Y-99370000D01*
X128140000Y-99130000D01*
X128140000Y-99610000D01*
G36*
X128140000Y-99610000D02*
G01*
X127810000Y-99370000D01*
X128140000Y-99130000D01*
X128140000Y-99610000D01*
G37*
%TO.C,C4*%
X108140000Y-91892164D02*
X108140000Y-92107836D01*
X108860000Y-91892164D02*
X108860000Y-92107836D01*
%TO.C,C7*%
X112392164Y-87640000D02*
X112607836Y-87640000D01*
X112392164Y-88360000D02*
X112607836Y-88360000D01*
%TO.C,SW1*%
X94780000Y-91950000D02*
X95570000Y-91950000D01*
X96620000Y-89900000D02*
X96620000Y-90100000D01*
X96620000Y-86900000D02*
X96620000Y-88600000D01*
X93770000Y-85650000D02*
X93770000Y-91350000D01*
X95570000Y-85050000D02*
X94780000Y-85050000D01*
%TO.C,C12*%
X105140000Y-93107836D02*
X105140000Y-92892164D01*
X105860000Y-93107836D02*
X105860000Y-92892164D01*
%TO.C,C13*%
X105860000Y-95107836D02*
X105860000Y-94892164D01*
X105140000Y-95107836D02*
X105140000Y-94892164D01*
%TO.C,Y1*%
X100790000Y-91940000D02*
X100790000Y-96060000D01*
X104210000Y-91940000D02*
X100790000Y-91940000D01*
%TO.C,C1*%
X124238748Y-97235000D02*
X124761252Y-97235000D01*
X124238748Y-95765000D02*
X124761252Y-95765000D01*
%TO.C,D1*%
X134985000Y-101735000D02*
X134985000Y-100265000D01*
X134985000Y-100265000D02*
X132700000Y-100265000D01*
X132700000Y-101735000D02*
X134985000Y-101735000D01*
%TO.C,J4*%
X108310000Y-108380000D02*
X108310000Y-107000000D01*
X109690000Y-108380000D02*
X108310000Y-108380000D01*
X110960000Y-108380000D02*
X118690000Y-108380000D01*
X110960000Y-108380000D02*
X110960000Y-105620000D01*
X118690000Y-108380000D02*
X118690000Y-105620000D01*
X110960000Y-105620000D02*
X118690000Y-105620000D01*
%TO.C,J3*%
X126460000Y-78120000D02*
X126460000Y-79500000D01*
X125080000Y-78120000D02*
X126460000Y-78120000D01*
X123810000Y-78120000D02*
X116080000Y-78120000D01*
X123810000Y-78120000D02*
X123810000Y-80880000D01*
X116080000Y-78120000D02*
X116080000Y-80880000D01*
X123810000Y-80880000D02*
X116080000Y-80880000D01*
%TO.C,C11*%
X112892164Y-100860000D02*
X113107836Y-100860000D01*
X112892164Y-100140000D02*
X113107836Y-100140000D01*
%TO.C,C5*%
X118107836Y-100140000D02*
X117892164Y-100140000D01*
X118107836Y-100860000D02*
X117892164Y-100860000D01*
%TO.C,C3*%
X112359420Y-87010000D02*
X112640580Y-87010000D01*
X112359420Y-85990000D02*
X112640580Y-85990000D01*
%TO.C,C6*%
X121140000Y-91892164D02*
X121140000Y-92107836D01*
X121860000Y-91892164D02*
X121860000Y-92107836D01*
%TO.C,C8*%
X109360000Y-95587836D02*
X109360000Y-95372164D01*
X108640000Y-95587836D02*
X108640000Y-95372164D01*
%TO.C,C9*%
X108087836Y-98640000D02*
X107872164Y-98640000D01*
X108087836Y-99360000D02*
X107872164Y-99360000D01*
%TO.C,C10*%
X108087836Y-100140000D02*
X107872164Y-100140000D01*
X108087836Y-100860000D02*
X107872164Y-100860000D01*
%TO.C,FB1*%
X109490000Y-99337221D02*
X109490000Y-99662779D01*
X110510000Y-99337221D02*
X110510000Y-99662779D01*
%TO.C,J2*%
X109540000Y-80880000D02*
X101810000Y-80880000D01*
X101810000Y-78120000D02*
X101810000Y-80880000D01*
X109540000Y-78120000D02*
X109540000Y-80880000D01*
X109540000Y-78120000D02*
X101810000Y-78120000D01*
X110810000Y-78120000D02*
X112190000Y-78120000D01*
X112190000Y-78120000D02*
X112190000Y-79500000D01*
%TO.C,R4*%
X111653641Y-103620000D02*
X111346359Y-103620000D01*
X111653641Y-104380000D02*
X111346359Y-104380000D01*
%TO.C,R5*%
X114846359Y-104380000D02*
X115153641Y-104380000D01*
X114846359Y-103620000D02*
X115153641Y-103620000D01*
%TO.C,R2*%
X100620000Y-88346359D02*
X100620000Y-88653641D01*
X101380000Y-88346359D02*
X101380000Y-88653641D01*
%TO.C,R3*%
X124620000Y-91846359D02*
X124620000Y-92153641D01*
X125380000Y-91846359D02*
X125380000Y-92153641D01*
%TO.C,U2*%
X110800000Y-91340000D02*
X110460000Y-90870000D01*
X111140000Y-90870000D01*
X110800000Y-91340000D01*
G36*
X110800000Y-91340000D02*
G01*
X110460000Y-90870000D01*
X111140000Y-90870000D01*
X110800000Y-91340000D01*
G37*
X118610000Y-98110000D02*
X118610000Y-97660000D01*
X118610000Y-90890000D02*
X118610000Y-91340000D01*
X118160000Y-98110000D02*
X118610000Y-98110000D01*
X118160000Y-90890000D02*
X118610000Y-90890000D01*
X111840000Y-98110000D02*
X111390000Y-98110000D01*
X111840000Y-90890000D02*
X111390000Y-90890000D01*
X111390000Y-98110000D02*
X111390000Y-97660000D01*
X111390000Y-90890000D02*
X111390000Y-91340000D01*
%TD*%
M02*
