%TF.GenerationSoftware,KiCad,Pcbnew,9.0.4*%
%TF.CreationDate,2025-10-05T01:25:01+05:30*%
%TF.ProjectId,Project4,50726f6a-6563-4743-942e-6b696361645f,rev?*%
%TF.SameCoordinates,Original*%
%TF.FileFunction,Plated,1,2,PTH,Mixed*%
%TF.FilePolarity,Positive*%
%FSLAX46Y46*%
G04 Gerber Fmt 4.6, Leading zero omitted, Abs format (unit mm)*
G04 Created by KiCad (PCBNEW 9.0.4) date 2025-10-05 01:25:01*
%MOMM*%
%LPD*%
G01*
G04 APERTURE LIST*
%TA.AperFunction,ViaDrill*%
%ADD10C,0.300000*%
%TD*%
G04 aperture for slot hole*
%TA.AperFunction,ComponentDrill*%
%ADD11C,0.550000*%
%TD*%
G04 aperture for slot hole*
%TA.AperFunction,ComponentDrill*%
%ADD12C,0.850000*%
%TD*%
%TA.AperFunction,ComponentDrill*%
%ADD13C,1.000000*%
%TD*%
G04 APERTURE END LIST*
D10*
X98500000Y-86000000D03*
X101500000Y-97000000D03*
X102500000Y-91500000D03*
X106500000Y-92000000D03*
X106500000Y-94500000D03*
X107500000Y-92500000D03*
X107500000Y-98000000D03*
X107500000Y-101500000D03*
X110000000Y-105000000D03*
X112350000Y-95792980D03*
X113000000Y-92000000D03*
X113000000Y-105000000D03*
X114000000Y-105000000D03*
X114500000Y-100500000D03*
X116500000Y-97000000D03*
X116500000Y-105000000D03*
X123500000Y-92500000D03*
X126000000Y-102000000D03*
X127000000Y-96500000D03*
X127000000Y-101000000D03*
X128000000Y-90500000D03*
X128000000Y-97500000D03*
X131000000Y-99000000D03*
X132000000Y-102500000D03*
X133000000Y-96500000D03*
X133000000Y-99500000D03*
D11*
%TO.C,J1*%
X134520000Y-87630000D02*
X133870000Y-87630000D01*
X134520000Y-95380000D02*
X133870000Y-95380000D01*
D12*
X130670000Y-87780000D02*
X130120000Y-87780000D01*
X130670000Y-95230000D02*
X130120000Y-95230000D01*
D13*
%TO.C,J2*%
X103190000Y-79500000D03*
X105730000Y-79500000D03*
X108270000Y-79500000D03*
%TO.C,J4*%
X109690000Y-107000000D03*
%TO.C,J2*%
X110810000Y-79500000D03*
%TO.C,J4*%
X112230000Y-107000000D03*
X114770000Y-107000000D03*
X117310000Y-107000000D03*
%TO.C,J3*%
X117460000Y-79500000D03*
X120000000Y-79500000D03*
X122540000Y-79500000D03*
X125080000Y-79500000D03*
M02*
